<svg width="156" height="162" viewBox="0 0 156 162" fill="none" xmlns="http://www.w3.org/2000/svg">
<path d="M70.3779 51.9189L69.5371 56.4131L66.207 53.2803L37.7031 26.4688L54.6016 61.5898L56.6035 65.75L52.0254 65.1533L13.1475 60.0801L47.5859 78.6172L51.6758 80.8184L47.5859 83.0205L13.1455 101.557L52.0254 96.4844L56.6035 95.8877L54.6016 100.048L37.7031 135.167L66.207 108.356L69.5371 105.225L70.3779 109.719L77.5449 148.037L84.7109 109.719L85.5508 105.225L88.8809 108.356L117.385 135.166L100.486 100.048L98.4854 95.8877L103.062 96.4844L141.943 101.557L107.503 83.0205L103.412 80.8184L107.503 78.6172L141.941 60.0801L103.062 65.1533L98.4854 65.75L100.486 61.5898L117.385 26.4707L88.8809 53.2803L85.5508 56.4131L84.7109 51.9189L77.5449 13.5996L70.3779 51.9189Z" fill="#DAFF76" stroke="#007DAE" stroke-width="5"/>
</svg>
