<svg width="3087" height="813" viewBox="0 0 3087 813" fill="none" xmlns="http://www.w3.org/2000/svg">
<rect opacity="0.2" y="2" width="3087" height="810" fill="#E1E1E1"/>
<rect opacity="0.2" y="2" width="1007" height="810" fill="#D5D5D5"/>
<rect opacity="0.2" x="1993" y="3" width="1094" height="810" fill="#F3F3F3"/>
<path d="M1714.36 5.98291L1709.9 21.6003C1708.27 20.5591 1703.3 18.1197 1696.51 16.6918C1688.04 14.907 1692.05 16.6918 1685.36 19.3691C1678.67 22.0463 1685.36 24.2774 1683.13 27.4008C1680.9 30.5243 1676.88 43.4644 1675.1 46.1417C1673.31 48.8189 1671.53 56.8507 1671.97 59.528C1672.42 62.2052 1670.19 68.006 1674.2 69.7908C1678.22 71.5756 1679.56 71.1294 1682.68 69.7908C1685.81 68.4522 1687.14 70.237 1687.14 72.0218C1687.14 73.8067 1689.38 81.8385 1691.61 87.6392C1693.84 93.4399 1692.5 104.595 1691.16 109.95C1689.82 115.304 1689.82 113.073 1691.61 121.105C1693.03 127.53 1691.9 129.137 1691.16 129.137L1684.02 128.69C1684.47 120.064 1685.45 101.293 1685.81 95.2248C1686.25 87.6392 1684.47 82.7309 1682.24 79.1612C1680.01 75.5915 1680.01 77.8226 1673.76 76.9301C1667.51 76.0377 1666.17 73.8067 1663.5 70.6832C1660.82 67.5597 1665.28 53.281 1668.4 47.4803C1671.53 41.6796 1669.3 43.0182 1669.74 39.8947C1670.19 36.7713 1675.1 30.9705 1675.99 27.8471C1676.88 24.7236 1679.11 21.6003 1679.11 19.3691C1679.11 17.1379 1677.77 16.6918 1670.19 15.7994C1664.12 15.0855 1654.87 8.9576 1651 5.98291L1662.6 5.09035C1662.45 5.53656 1663.14 6.87519 1667.07 8.66003C1671.97 10.8911 1671.97 10.4449 1683.57 8.21382C1695.18 5.98277 1687.59 5.98291 1699.19 2.85944C1708.47 0.360665 1713.17 3.9006 1714.36 5.98291Z" fill="#F7FFE1" stroke="black" stroke-width="0.89242"/>
</svg>
