<svg width="3087" height="813" viewBox="0 0 3087 813" fill="none" xmlns="http://www.w3.org/2000/svg">
<rect opacity="0.2" y="2" width="3087" height="810" fill="#E1E1E1"/>
<rect opacity="0.2" y="2" width="1007" height="810" fill="#D5D5D5"/>
<rect opacity="0.2" x="1993" y="3" width="1094" height="810" fill="#F3F3F3"/>
<path d="M1298.35 2.51533C1300.13 2.96154 1298.35 3.85417 1300.13 3.40796C1301.56 3.051 1304 4.44911 1305.04 5.1928L1302.81 8.76243C1302.51 8.76243 1301.21 8.58395 1298.35 7.87001C1294.78 6.97759 1298.35 8.76243 1294.78 9.20864C1291.21 9.65485 1293.44 10.1011 1291.21 8.76243C1288.98 7.4238 1287.19 8.76243 1286.3 9.20864C1285.41 9.65485 1284.07 10.5473 1282.73 10.1011C1281.39 9.65485 1279.61 10.5473 1276.04 11.8859C1272.47 13.2245 1273.81 13.2245 1271.13 13.2245C1268.45 13.2245 1267.56 16.7942 1265.78 19.4715C1263.99 22.1487 1264.88 21.2563 1263.99 21.7025C1263.1 22.1487 1260.42 26.6108 1259.53 28.3957C1258.64 30.1805 1259.98 36.8737 1260.42 39.5509C1260.87 42.2282 1268.45 49.8137 1269.79 51.1524C1271.13 52.491 1273.81 56.5069 1276.49 60.0766C1279.16 63.6462 1279.61 75.2477 1279.61 76.5863C1279.61 77.925 1280.06 77.925 1281.84 79.2636C1283.62 80.6022 1281.84 85.0643 1281.39 89.0802C1280.95 93.0961 1281.84 91.3113 1281.84 101.128C1281.84 110.944 1281.39 105.59 1280.95 111.837C1280.59 116.834 1281.39 125.521 1281.84 129.239C1281.69 129.685 1281.66 130.845 1282.73 131.916C1284.07 133.255 1282.73 133.255 1281.84 137.271C1280.95 141.287 1281.39 141.733 1281.84 143.072C1282.29 144.41 1281.39 145.303 1279.61 146.195C1277.82 147.087 1277.38 151.55 1275.59 154.227C1274.17 156.369 1274.11 158.986 1274.25 160.028C1274.7 159.879 1275.77 159.76 1276.49 160.474C1277.38 161.366 1276.04 160.92 1274.25 163.597C1272.47 166.275 1274.25 165.828 1274.25 171.629C1274.25 176.27 1272.17 179.512 1271.13 180.553L1267.56 177.43L1268.9 176.091C1269.79 175.199 1270.24 171.183 1269.79 169.844C1269.35 168.506 1270.24 169.398 1271.13 168.506C1272.02 167.613 1271.58 164.49 1272.02 161.812C1272.47 159.135 1270.68 160.028 1268.9 158.243C1267.12 156.458 1268.9 156.012 1269.35 154.673C1269.79 153.334 1274.25 142.625 1276.04 136.825C1277.82 131.024 1276.49 127.008 1276.04 122.992C1275.59 118.976 1275.15 97.112 1275.59 93.5423C1276.04 89.9726 1275.59 81.0484 1275.59 78.8174C1275.59 76.5863 1274.7 76.5863 1273.36 73.9091C1272.02 71.2318 1272.92 64.9849 1272.47 62.3076C1272.02 59.6304 1272.47 60.969 1270.68 59.6304C1268.9 58.2917 1266.67 59.1842 1265.78 56.5069C1265.06 54.3651 1264.29 53.2347 1263.99 52.9372C1262.21 51.1524 1258.46 47.4935 1257.74 47.1365C1256.85 46.6903 1255.96 47.1365 1255.51 44.9054C1255.07 42.6744 1254.62 42.6744 1254.18 40.8895C1253.73 39.1047 1254.18 39.5509 1255.07 39.1047C1255.96 38.6585 1255.07 38.2123 1255.07 30.6267C1255.07 23.0411 1255.96 24.826 1256.41 24.3798C1256.76 24.0228 1256.55 23.0411 1256.41 22.5949C1255.66 20.9588 1254.26 17.6866 1254.62 17.6866C1255.07 17.6866 1259.98 17.6866 1262.21 16.7942C1264.44 15.9018 1265.78 12.7783 1269.35 9.20864C1272.92 5.63896 1271.58 6.97759 1274.7 6.53138C1277.82 6.08517 1276.49 6.97759 1278.72 5.63896C1280.95 4.30033 1282.29 3.85412 1287.64 3.85412C1293 3.85412 1288.98 3.40796 1293.44 2.51533C1297.9 1.6227 1296.56 2.06912 1298.35 2.51533Z" fill="#F7FFE1"/>
<path d="M1305.04 5.1928C1305.04 5.1928 1305.04 5.19281 1305.04 5.1928ZM1305.04 5.1928C1304 4.44911 1301.56 3.051 1300.13 3.40796C1298.35 3.85417 1300.13 2.96154 1298.35 2.51533C1296.56 2.06912 1297.9 1.6227 1293.44 2.51533C1288.98 3.40796 1293 3.85412 1287.64 3.85412C1282.29 3.85412 1280.95 4.30033 1278.72 5.63896C1276.49 6.97759 1277.82 6.08517 1274.7 6.53138C1271.58 6.97759 1272.92 5.63896 1269.35 9.20864C1265.78 12.7783 1264.44 15.9018 1262.21 16.7942C1259.98 17.6866 1255.07 17.6866 1254.62 17.6866C1254.26 17.6866 1255.66 20.9588 1256.41 22.5949C1256.55 23.0411 1256.76 24.0228 1256.41 24.3798C1255.96 24.826 1255.07 23.0411 1255.07 30.6267C1255.07 38.2123 1255.96 38.6585 1255.07 39.1047C1254.18 39.5509 1253.73 39.1047 1254.18 40.8895C1254.62 42.6744 1255.07 42.6744 1255.51 44.9054C1255.96 47.1365 1256.85 46.6903 1257.74 47.1365C1258.46 47.4935 1262.21 51.1524 1263.99 52.9372C1264.29 53.2347 1265.06 54.3651 1265.78 56.5069C1266.67 59.1841 1268.9 58.2917 1270.68 59.6304C1272.47 60.969 1272.02 59.6304 1272.47 62.3076C1272.92 64.9849 1272.02 71.2318 1273.36 73.9091C1274.7 76.5863 1275.59 76.5863 1275.59 78.8174C1275.59 81.0484 1276.04 89.9726 1275.59 93.5423C1275.15 97.112 1275.59 118.976 1276.04 122.992C1276.49 127.008 1277.82 131.024 1276.04 136.825C1274.25 142.625 1269.79 153.334 1269.35 154.673C1268.9 156.012 1267.12 156.458 1268.9 158.243C1270.68 160.028 1272.47 159.135 1272.02 161.812C1271.58 164.49 1272.02 167.613 1271.13 168.506C1270.24 169.398 1269.35 168.506 1269.79 169.844C1270.24 171.183 1269.79 175.199 1268.9 176.091C1268.19 176.805 1267.71 177.281 1267.56 177.43L1271.13 180.553C1272.17 179.512 1274.25 176.27 1274.25 171.629C1274.25 165.828 1272.47 166.275 1274.25 163.597C1276.04 160.92 1277.38 161.366 1276.49 160.474C1275.77 159.76 1274.7 159.879 1274.25 160.028C1274.11 158.986 1274.17 156.369 1275.59 154.227C1277.38 151.55 1277.82 147.087 1279.61 146.195C1281.39 145.303 1282.29 144.41 1281.84 143.072C1281.39 141.733 1280.95 141.287 1281.84 137.271C1282.73 133.255 1284.07 133.255 1282.73 131.916C1281.66 130.845 1281.69 129.685 1281.84 129.239C1281.39 125.521 1280.59 116.834 1280.95 111.837C1281.39 105.59 1281.84 110.944 1281.84 101.128C1281.84 91.3113 1280.95 93.0961 1281.39 89.0802C1281.84 85.0643 1283.62 80.6022 1281.84 79.2636C1280.06 77.925 1279.61 77.925 1279.61 76.5863C1279.61 75.2477 1279.16 63.6462 1276.49 60.0766C1273.81 56.5069 1271.13 52.491 1269.79 51.1524C1268.45 49.8137 1260.87 42.2282 1260.42 39.5509C1259.98 36.8737 1258.64 30.1805 1259.53 28.3957C1260.42 26.6108 1263.1 22.1487 1263.99 21.7025C1264.88 21.2563 1263.99 22.1487 1265.78 19.4715C1267.56 16.7942 1268.45 13.2245 1271.13 13.2245C1273.81 13.2245 1272.47 13.2245 1276.04 11.8859C1279.61 10.5473 1281.39 9.65485 1282.73 10.1011C1284.07 10.5473 1285.41 9.65485 1286.3 9.20864C1287.19 8.76243 1288.98 7.4238 1291.21 8.76243C1293.44 10.1011 1291.21 9.65485 1294.78 9.20864C1298.35 8.76243 1294.78 6.97759 1298.35 7.87001C1301.21 8.58395 1302.51 8.76243 1302.81 8.76243L1305.04 5.1928Z" stroke="black" stroke-width="0.89242" stroke-linejoin="round"/>
</svg>
