<svg width="3087" height="814" viewBox="0 0 3087 814" fill="none" xmlns="http://www.w3.org/2000/svg">
<rect opacity="0.2" y="2.44629" width="3087" height="810" fill="#E1E1E1"/>
<rect opacity="0.2" y="2.44629" width="1007" height="810" fill="#D5D5D5"/>
<rect opacity="0.2" x="1993" y="3.44629" width="1094" height="810" fill="#F3F3F3"/>
<path d="M2373.53 19.368C2371.3 16.2445 2373.98 12.2286 2375.77 5.53545L2361.93 2.85819C2361.93 3.3044 2361.75 5.53544 2361.04 10.89C2360.15 17.5831 2358.36 13.121 2352.12 12.6748C2345.87 12.2286 2348.1 12.2286 2341.85 14.9058C2335.61 17.5831 2337.39 16.2445 2329.81 13.121C2322.22 9.99753 2325.79 8.21269 2327.57 5.08923C2329.36 1.96576 2323.11 3.3044 2310.17 2.85819C2301.53 2.56023 2297.67 1.26745 2296.45 0.707024C2296.42 0.679346 2296.38 0.652693 2296.34 0.627137C2295.9 0.330636 2295.84 0.428181 2296.45 0.707024C2297.63 1.64587 2296.95 3.76338 2302.59 4.19682C2308.39 4.64303 2307.5 5.53545 2313.74 7.7665C2319.99 9.99755 2329.81 21.1528 2333.82 25.1687C2337.03 28.3814 2339.03 28.2922 2339.62 27.8459C2340.22 27.3997 2342.21 26.2396 2345.42 25.1687C2349.44 23.8301 2351.67 24.7225 2355.69 27.8459C2359.7 30.9694 2352.12 36.3239 2346.32 41.2322C2340.52 46.1405 2337.39 41.6784 2326.24 44.8019C2315.08 47.9254 2325.34 49.264 2323.11 54.1723C2320.88 59.0806 2325.34 62.2041 2327.13 67.5586C2328.91 72.9131 2328.91 70.2359 2333.82 65.7738C2338.73 61.3117 2337.84 59.5268 2348.1 51.9413C2358.36 44.3557 2354.79 48.3716 2363.72 42.5709C2372.64 36.7701 2366.4 39.8936 2368.18 34.0929C2369.96 28.2922 2370.86 27.3997 2372.64 23.8301C2374.43 20.2604 2375.77 22.4914 2373.53 19.368Z" fill="#F7FFE1"/>
<path d="M2375.77 5.53545C2373.98 12.2286 2371.3 16.2445 2373.53 19.368C2375.77 22.4914 2374.43 20.2604 2372.64 23.8301C2370.86 27.3997 2369.96 28.2922 2368.18 34.0929C2366.4 39.8936 2372.64 36.7701 2363.72 42.5709C2354.79 48.3716 2358.36 44.3557 2348.1 51.9413C2337.84 59.5268 2338.73 61.3117 2333.82 65.7738C2328.91 70.2359 2328.91 72.9131 2327.13 67.5586C2325.34 62.2041 2320.88 59.0806 2323.11 54.1723C2325.34 49.264 2315.08 47.9254 2326.24 44.8019C2337.39 41.6784 2340.52 46.1405 2346.32 41.2322C2352.12 36.3239 2359.7 30.9694 2355.69 27.8459C2351.67 24.7225 2349.44 23.8301 2345.42 25.1687C2342.21 26.2396 2340.22 27.3997 2339.62 27.8459C2339.03 28.2922 2337.03 28.3814 2333.82 25.1687C2329.81 21.1528 2319.99 9.99755 2313.74 7.7665C2307.5 5.53545 2308.39 4.64303 2302.59 4.19682C2296.79 3.75061 2297.68 1.51956 2296.34 0.627137C2295 -0.265283 2297.23 2.41198 2310.17 2.85819C2323.11 3.3044 2329.36 1.96576 2327.57 5.08923C2325.79 8.21269 2322.22 9.99753 2329.81 13.121C2337.39 16.2445 2335.61 17.5831 2341.85 14.9058C2348.1 12.2286 2345.87 12.2286 2352.12 12.6748C2358.36 13.121 2360.15 17.5831 2361.04 10.89C2361.75 5.53544 2361.93 3.3044 2361.93 2.85819L2375.77 5.53545Z" stroke="black" stroke-width="0.89242"/>
</svg>
