<svg width="3087" height="813" viewBox="0 0 3087 813" fill="none" xmlns="http://www.w3.org/2000/svg">
<rect opacity="0.2" y="2" width="3087" height="810" fill="#E1E1E1"/>
<rect opacity="0.2" y="2" width="1007" height="810" fill="#D5D5D5"/>
<rect opacity="0.2" x="1993" y="3" width="1094" height="810" fill="#F3F3F3"/>
<path d="M1615.04 148.05C1616.37 147.604 1618.16 148.497 1622.17 149.389C1621.13 137.639 1619.14 113.157 1619.5 109.23C1619.94 104.322 1619.94 100.752 1619.5 97.6286C1619.05 94.5051 1620.84 88.7044 1621.28 85.5809C1621.73 82.4574 1620.84 83.7961 1620.84 77.9953C1620.84 72.1946 1620.84 69.0711 1621.73 62.8242C1622.62 56.5773 1622.62 58.3621 1622.62 54.3462C1622.62 50.3303 1625.3 45.8682 1624.85 41.4061C1624.41 36.944 1616.82 32.0357 1614.59 30.6971C1612.36 29.3585 1611.47 30.2509 1610.57 26.6812C1609.68 23.1115 1615.48 22.2191 1618.16 17.757C1620.3 14.1873 1619.65 11.8075 1619.05 11.0638L1610.57 11.5101C1610.28 11.8075 1609.23 13.1164 1607.45 15.9722C1605.22 19.5418 1606.56 18.2032 1603.43 19.0956C1600.31 19.988 1600.31 20.4343 1598.97 18.2032C1597.63 15.9722 1596.74 17.3108 1595.85 17.3108C1594.96 17.3108 1593.62 19.5418 1590.05 18.2032C1587.19 17.1323 1587.97 7.04796 1588.71 2.13965L1578 2.58586C1578.15 3.03207 1578.45 5.26312 1578.45 10.6176C1578.45 17.3108 1582.91 19.0956 1587.82 26.6812C1592.73 34.2668 1600.76 32.9281 1605.67 36.944C1610.57 40.9599 1611.91 38.2826 1615.93 43.6372C1619.94 48.9917 1614.14 62.8242 1613.7 67.2863C1613.25 71.7484 1611.47 82.9036 1610.13 98.9672C1608.79 115.031 1611.02 138.234 1611.47 144.034C1611.91 149.835 1613.7 148.497 1615.04 148.05Z" fill="#F7FFE1" stroke="black" stroke-width="0.89242"/>
</svg>
