<svg width="3087" height="813" viewBox="0 0 3087 813" fill="none" xmlns="http://www.w3.org/2000/svg">
<rect opacity="0.2" y="2" width="3087" height="810" fill="#E1E1E1"/>
<rect opacity="0.2" y="2" width="1007" height="810" fill="#D5D5D5"/>
<rect opacity="0.2" x="1993" y="3" width="1094" height="810" fill="#F3F3F3"/>
<path d="M1930.87 148.05C1929.53 147.604 1927.74 148.497 1923.73 149.389C1924.77 137.639 1926.76 113.157 1926.41 109.23C1925.96 104.322 1925.96 100.752 1926.41 97.6286C1926.85 94.5051 1925.07 88.7044 1924.62 85.5809C1924.17 82.4574 1925.07 83.7961 1925.07 77.9953C1925.07 72.1946 1925.07 69.0711 1924.17 62.8242C1923.28 56.5773 1923.28 58.3621 1923.28 54.3462C1923.28 50.3303 1920.6 45.8682 1921.05 41.4061C1921.5 36.944 1929.08 32.0357 1931.31 30.6971C1933.54 29.3585 1934.44 30.2509 1935.33 26.6812C1936.22 23.1115 1930.42 22.2191 1927.74 17.757C1925.6 14.1873 1926.26 11.8075 1926.85 11.0638L1935.33 11.5101C1935.63 11.8075 1936.67 13.1164 1938.45 15.9722C1940.68 19.5418 1939.34 18.2032 1942.47 19.0956C1945.59 19.988 1945.59 20.4343 1946.93 18.2032C1948.27 15.9722 1949.16 17.3108 1950.05 17.3108C1950.95 17.3108 1952.28 19.5418 1955.85 18.2032C1958.71 17.1323 1957.94 7.04796 1957.19 2.13965L1967.9 2.58586C1967.75 3.03207 1967.46 5.26312 1967.46 10.6176C1967.46 17.3108 1962.99 19.0956 1958.09 26.6812C1953.18 34.2668 1945.15 32.9281 1940.24 36.944C1935.33 40.9599 1933.99 38.2826 1929.97 43.6372C1925.96 48.9917 1931.76 62.8242 1932.21 67.2863C1932.65 71.7484 1934.44 82.9036 1935.78 98.9672C1937.11 115.031 1934.88 138.234 1934.44 144.034C1933.99 149.835 1932.21 148.497 1930.87 148.05Z" fill="#F7FFE1" stroke="black" stroke-width="0.89242"/>
</svg>
