<svg width="3087" height="813" viewBox="0 0 3087 813" fill="none" xmlns="http://www.w3.org/2000/svg">
<rect opacity="0.2" y="2" width="3087" height="810" fill="#E1E1E1"/>
<rect opacity="0.2" y="2" width="1007" height="810" fill="#D5D5D5"/>
<rect opacity="0.2" x="1993" y="3" width="1094" height="810" fill="#F3F3F3"/>
<path d="M2038.42 4.69534H2029.05C2028.6 6.03418 2031.28 8.71101 2032.17 10.4959C2033.07 12.2807 2039.31 18.0814 2042.44 21.2049C2045.56 24.3284 2046.9 26.1132 2048.68 27.898C2050.47 29.6829 2049.13 28.7905 2049.13 30.5753C2049.13 32.3601 2053.59 39.0533 2054.48 40.3919C2055.38 41.7305 2056.71 46.1926 2055.82 46.6389C2054.93 47.0851 2055.38 48.4237 2055.38 51.101C2055.38 53.7782 2055.38 52.4396 2054.93 52.8858C2054.48 53.332 2054.48 54.6706 2054.48 56.4555C2054.48 58.2403 2053.59 58.6865 2052.7 59.5789C2051.81 60.4714 2051.81 61.3638 2051.81 61.81C2051.81 62.2562 2052.7 66.7183 2051.36 68.5031C2050.02 70.288 2050.02 72.0728 2050.47 77.4273C2050.91 82.7819 2053.59 83.2281 2055.82 82.7819C2058.05 82.3356 2057.16 82.3356 2058.95 79.6584C2060.73 76.9811 2059.84 77.8736 2061.62 76.0887C2063.41 74.3039 2062.96 74.3039 2063.85 71.6266C2064.75 68.9493 2065.19 69.8418 2067.87 66.7183C2070.55 63.5948 2068.32 64.041 2070.1 62.2562C2071.89 60.4714 2070.55 60.4714 2070.1 59.5789C2069.65 58.6865 2070.1 47.5313 2070.99 46.1926C2071.89 44.854 2075.46 46.6389 2076.79 44.854C2078.13 43.0692 2079.92 41.7305 2081.7 39.9457C2083.49 38.1609 2080.81 34.5912 2079.92 33.2526C2079.03 31.9139 2077.69 33.2526 2074.12 34.5912C2070.55 35.9298 2072.33 34.5912 2070.99 33.2526C2069.65 31.9139 2066.53 32.8063 2064.3 32.8063C2062.52 32.8063 2061.18 32.2114 2060.73 31.9139C2060.58 30.4266 2060.37 27.2733 2060.73 26.5594C2061.18 25.667 2061.62 25.667 2062.52 23.4359C2063.41 21.2049 2063.41 20.7587 2066.09 18.0814C2068.23 15.9396 2069.36 16.2967 2069.65 16.743C2069.51 16.2967 2069.03 15.0472 2068.32 13.6193C2067.42 11.8345 2068.32 11.3883 2070.1 10.0496C2071.53 8.97874 2074.27 9.30596 2075.46 9.60343C2075.46 9.75217 2076.17 9.42499 2079.03 6.92639C2081.88 4.42778 2086.16 4.69527 2087.95 5.14134C2087.35 4.99267 2085.81 4.42761 2084.38 3.35671C2082.59 2.01808 2067.87 1.57187 2064.3 2.46429C2061.44 3.17823 2057.46 3.35671 2055.82 3.35671L2058.95 6.92639L2060.28 8.26502C2059.84 10.4961 2058.32 15.3151 2055.82 16.743C2052.7 18.5278 2051.81 17.6354 2046.9 14.9582C2042.97 12.8164 2039.61 7.22386 2038.42 4.69534Z" fill="#F7FFE1" stroke="black" stroke-width="0.89242"/>
</svg>
