<svg width="3087" height="813" viewBox="0 0 3087 813" fill="none" xmlns="http://www.w3.org/2000/svg">
<rect opacity="0.2" y="2" width="3087" height="810" fill="#E1E1E1"/>
<rect opacity="0.2" y="2" width="1007" height="810" fill="#D5D5D5"/>
<rect opacity="0.2" x="1993" y="3" width="1094" height="810" fill="#F3F3F3"/>
<path d="M68.0636 3.03188C63.066 2.31795 55.2722 3.62683 52 4.37051C58.2469 13.2948 71.7225 32.3034 75.6491 36.944C80.5574 42.7448 82.3423 39.6213 80.5574 48.9917C79.1296 56.488 79.3675 55.3874 79.665 53.9L78.7726 58.3621C77.8802 69.0711 81.4499 75.3181 81.4499 91.3816C81.4499 107.445 81.4499 118.154 83.6809 128.417C85.912 138.68 89.4816 149.835 88.143 159.206C88.143 160.098 85.4657 167.237 85.0195 169.468C84.5733 171.699 89.9278 169.915 94.3899 168.13C98.852 166.345 103.76 156.528 106.884 150.728C110.007 144.927 108.222 138.234 107.776 135.11C107.33 131.987 104.653 125.294 103.314 120.831C101.976 116.369 103.314 115.031 103.314 114.138C103.314 113.246 103.314 113.246 101.976 110.569C100.637 107.891 101.083 94.9513 103.76 94.9513C105.902 94.9513 108.222 99.4134 109.115 101.644L110.9 95.8437C110.602 94.9513 109.383 92.3633 106.884 89.1506C103.76 85.1347 99.7445 73.5332 99.7445 64.1628C99.7445 54.7924 99.2982 57.9159 96.621 42.7448C93.9437 27.5736 101.529 19.0956 101.529 17.3108C101.529 15.8829 108.966 7.49417 112.685 3.47828H108.222C104.653 3.47828 97.0672 2.13965 92.1589 2.13965C88.2322 2.13965 84.8708 3.03207 83.6809 3.47828C83.9784 3.47828 84.5733 3.746 84.5733 4.81691C84.5733 5.88781 86.0607 8.53532 86.8044 9.72522C87.1018 10.4689 87.6076 12.1348 87.2506 12.8487C86.8044 13.7411 81.8961 12.8487 80.5574 12.4025C79.2188 11.9563 80.1112 11.5101 80.5574 7.94038C81.0036 4.3707 81.8961 3.92449 81.4499 3.92449C81.0036 3.92449 74.3105 3.9243 68.0636 3.03188Z" fill="#F7FFE1" stroke="black" stroke-width="0.89242"/>
</svg>
