<svg width="3087" height="813" viewBox="0 0 3087 813" fill="none" xmlns="http://www.w3.org/2000/svg">
<rect opacity="0.2" y="2" width="3087" height="810" fill="#E1E1E1"/>
<rect opacity="0.2" y="2" width="1007" height="810" fill="#D5D5D5"/>
<rect opacity="0.2" x="1993" y="3" width="1094" height="810" fill="#F3F3F3"/>
<path d="M1732.48 71.1625C1732.92 64.0232 1729.8 63.577 1724 58.2225L1744.97 55.099L1744.08 60.4535C1743.63 63.1308 1740.06 77.4095 1745.42 77.4095C1750.77 77.4095 1755.68 75.6246 1752.11 61.7921C1748.54 47.9596 1746.76 29.665 1745.42 22.0794C1744.08 14.4939 1750.77 15.3863 1756.13 9.58557C1760.33 5.02991 1756.57 2.68173 1754.04 2.03443C1753.99 2.02223 1753.94 2.01074 1753.9 2C1753.94 2.01089 1753.99 2.02236 1754.04 2.03443C1755.38 2.36007 1759.41 3.19883 1765.94 4.23105C1772.73 5.30195 1776.8 6.4621 1777.99 6.90831C1777.69 8.69315 1775.85 12.6198 1770.85 14.0477C1764.61 15.8325 1761.93 17.1711 1757.02 22.9719C1752.11 28.7726 1751.22 28.3264 1753 35.0195C1754.79 41.7127 1757.02 38.5892 1757.02 39.9278C1757.02 41.2665 1756.57 43.4975 1757.02 51.9755C1757.47 60.4535 1764.16 69.3777 1764.16 72.5012C1764.16 75.6246 1765.05 85.8875 1769.07 90.3496C1773.08 94.8117 1770.85 93.473 1769.07 97.0427C1767.64 99.8985 1768.47 104.182 1769.07 105.967H1762.82C1758.89 105.967 1757.91 105.509 1757.91 105.28V97.0427C1757.47 97.6377 1755.41 99.9877 1750.77 104.628C1744.97 110.429 1746.31 114.445 1742.29 121.584C1738.28 128.724 1738.72 122.477 1737.39 119.353C1736.05 116.23 1732.48 113.999 1729.35 104.628C1726.23 95.2579 1730.69 93.473 1730.25 85.8875C1729.8 78.3019 1732.03 78.3019 1732.48 71.1625Z" fill="#F7FFE1"/>
<path d="M1724 58.2225C1729.8 63.577 1732.92 64.0232 1732.48 71.1625C1732.03 78.3019 1729.8 78.3019 1730.25 85.8875C1730.69 93.473 1726.23 95.2579 1729.35 104.628C1732.48 113.999 1736.05 116.23 1737.39 119.353C1738.72 122.477 1738.28 128.724 1742.29 121.584C1746.31 114.445 1744.97 110.429 1750.77 104.628C1755.41 99.9877 1757.47 97.6377 1757.91 97.0427V105.28C1757.91 105.509 1758.89 105.967 1762.82 105.967C1766.75 105.967 1768.62 105.967 1769.07 105.967C1768.47 104.182 1767.64 99.8985 1769.07 97.0427C1770.85 93.473 1773.08 94.8117 1769.07 90.3496C1765.05 85.8875 1764.16 75.6246 1764.16 72.5012C1764.16 69.3777 1757.47 60.4535 1757.02 51.9755C1756.57 43.4975 1757.02 41.2665 1757.02 39.9278C1757.02 38.5892 1754.79 41.7127 1753 35.0195C1751.22 28.3264 1752.11 28.7726 1757.02 22.9719C1761.93 17.1711 1764.61 15.8325 1770.85 14.0477C1775.85 12.6198 1777.69 8.69315 1777.99 6.90831C1776.8 6.4621 1772.73 5.30195 1765.94 4.23105C1759.16 3.16015 1755.09 2.29747 1753.9 2C1756.42 2.59495 1760.41 4.94499 1756.13 9.58557C1750.77 15.3863 1744.08 14.4939 1745.42 22.0794C1746.76 29.665 1748.54 47.9596 1752.11 61.7921C1755.68 75.6246 1750.77 77.4095 1745.42 77.4095C1740.06 77.4095 1743.63 63.1308 1744.08 60.4535C1744.44 58.3117 1744.82 55.9914 1744.97 55.099L1724 58.2225Z" stroke="black" stroke-width="0.89242"/>
</svg>
