<svg width="3087" height="813" viewBox="0 0 3087 813" fill="none" xmlns="http://www.w3.org/2000/svg">
<rect opacity="0.2" y="2" width="3087" height="810" fill="#E1E1E1"/>
<rect opacity="0.2" y="2" width="1007" height="810" fill="#D5D5D5"/>
<rect opacity="0.2" x="1993" y="3" width="1094" height="810" fill="#F3F3F3"/>
<path d="M227.908 123.509C231.924 130.648 228.801 129.756 225.677 136.003L234.155 137.341C234.453 136.598 235.94 133.325 239.51 126.186C243.972 117.262 243.079 117.708 245.31 102.537C247.542 87.3657 246.203 95.8437 246.203 88.7044C246.203 81.565 247.095 85.1347 245.31 78.8878C243.526 72.6408 242.187 49.8841 242.187 48.0993C242.187 46.3144 247.542 47.2068 246.203 42.7448C244.864 38.2826 242.187 31.1433 240.848 26.235C239.51 21.3267 244.418 17.3108 255.127 14.1873C263.694 11.6885 267.324 5.70933 268.067 3.03207H252.45C252.301 3.62701 251.468 5.35236 249.326 7.49417C246.649 10.1714 244.418 10.1714 242.187 11.0638C239.956 11.9563 239.064 10.1714 236.386 7.94038C234.244 6.15554 233.709 3.92449 233.709 3.03207L225.677 2.13965V5.70933C225.677 8.38659 231.032 10.6176 231.032 28.0198C231.032 45.422 229.247 55.2386 227.908 69.0711C226.57 82.9036 231.478 103.429 231.032 106.553C230.586 109.676 230.139 109.23 227.908 110.569C226.123 111.64 223.892 109.527 223 108.338C223.297 111.015 224.696 117.797 227.908 123.509Z" fill="#F7FFE1" stroke="black" stroke-width="0.89242"/>
</svg>
