<svg width="3087" height="811" viewBox="0 0 3087 811" fill="none" xmlns="http://www.w3.org/2000/svg">
<rect opacity="0.2" width="3087" height="810" fill="#E1E1E1"/>
<rect opacity="0.2" width="1007" height="810" fill="#D5D5D5"/>
<rect opacity="0.2" x="1993" y="1" width="1094" height="810" fill="#F3F3F3"/>
<path d="M1533.7 7.02637C1534.64 9.96317 1536.91 16.5071 1539.02 20.7256C1539.71 22.106 1541.13 24.1177 1542.89 26.4746C1543.77 27.6586 1544.75 28.9386 1545.77 30.2793C1546.79 31.6205 1547.86 33.0238 1548.93 34.458C1553.24 40.2156 1557.54 46.4044 1559.07 51.0088C1560.61 55.6184 1561.06 63.247 1561.17 70.3965C1561.23 73.9603 1561.2 77.385 1561.18 80.2314C1561.17 83.0653 1561.17 85.3517 1561.28 86.6055C1561.39 87.7687 1561.2 89.474 1560.86 91.5088C1560.51 93.5334 1560.01 95.8384 1559.51 98.1846C1559.01 100.525 1558.5 102.906 1558.15 105.066C1557.8 107.22 1557.6 109.188 1557.71 110.694C1557.82 112.084 1557.61 113.989 1557.21 116.157C1556.82 118.318 1556.25 120.705 1555.66 123.046C1555.08 125.381 1554.48 127.678 1554.02 129.635C1553.57 131.579 1553.25 133.246 1553.25 134.31C1553.25 134.749 1553.08 135.666 1552.76 136.995C1552.45 138.305 1551.99 139.968 1551.44 141.868C1550.34 145.669 1548.87 150.405 1547.36 155.146C1545.85 159.889 1544.32 164.623 1543.11 168.435C1541.9 172.229 1541 175.127 1540.77 176.156C1540.67 176.583 1540.5 176.873 1540.28 177.068C1540.07 177.265 1539.79 177.391 1539.44 177.443C1538.74 177.55 1537.82 177.339 1536.89 176.86C1535.97 176.386 1535.09 175.674 1534.47 174.854C1533.85 174.033 1533.52 173.14 1533.61 172.286C1533.66 171.842 1533.88 171.071 1534.26 170.006C1534.63 168.954 1535.14 167.652 1535.75 166.166C1536.97 163.192 1538.57 159.505 1540.22 155.623C1543.5 147.889 1546.99 139.357 1547.89 134.389C1549.68 124.534 1550.13 115.128 1551.02 91.043C1551.91 66.9642 1551.03 54.3512 1546.06 44.8604C1541.11 35.4086 1534.36 29.1138 1527.19 23.7383C1525.84 22.7216 1524.64 21.1327 1523.6 19.1904C1522.56 17.2524 1521.69 14.9894 1520.97 12.6533C1519.65 8.33793 1518.87 3.80992 1518.52 0.701172L1533.7 7.02637Z" fill="#B4FFA4" stroke="black" stroke-width="0.89242"/>
</svg>
