<svg width="3087" height="811" viewBox="0 0 3087 811" fill="none" xmlns="http://www.w3.org/2000/svg">
<rect opacity="0.2" width="3087" height="810" fill="#E1E1E1"/>
<rect opacity="0.2" width="1007" height="810" fill="#D5D5D5"/>
<rect opacity="0.2" x="1993" y="1" width="1094" height="810" fill="#F3F3F3"/>
<path d="M620.025 2.04297C617.176 5.0243 610.61 10.5306 603.354 12.5098C598.524 13.8268 591.456 13.7218 584.973 13.4424C581.749 13.3034 578.667 13.1215 576.124 13.0586C574.851 13.0271 573.701 13.0255 572.727 13.0742C571.759 13.1226 570.934 13.2221 570.323 13.4053C569.224 13.735 567.344 14.1775 565.12 14.7021C562.904 15.2248 560.36 15.8254 557.954 16.4688C555.552 17.1111 553.269 17.8008 551.581 18.5029C550.74 18.8529 550.022 19.216 549.508 19.5908C549.023 19.9445 548.588 20.4033 548.588 20.9717C548.588 21.3511 548.664 21.9029 548.786 22.5664C548.91 23.2387 549.086 24.0562 549.296 24.9814C549.721 26.8576 550.267 29.1102 550.829 31.6113C551.946 36.5796 553.05 42.2236 553.05 46.4062C553.05 48.4804 552.555 51.9279 551.822 56.0889C551.091 60.2398 550.13 65.0577 549.209 69.8594C548.289 74.6562 547.408 79.4351 546.842 83.4912C546.278 87.5249 546.014 90.913 546.363 92.8896C547.038 96.7131 548.384 101.421 549.726 105.446C551.062 109.455 552.414 112.848 553.112 114.013C553.787 115.136 555.893 118.463 557.891 122.568C559.893 126.685 561.755 131.526 561.974 135.671C562.194 139.856 561.421 146.172 560.474 151.691C560.001 154.445 559.486 156.989 559.035 158.953C558.81 159.935 558.601 160.77 558.421 161.412C558.237 162.068 558.094 162.488 558.005 162.667C558.003 162.672 558 162.703 557.886 162.713C557.75 162.725 557.533 162.694 557.225 162.592C556.616 162.39 555.81 161.965 554.914 161.406C553.228 160.355 551.317 158.893 549.989 157.8C550.729 155.294 551.689 151.243 552.265 146.85C552.862 142.292 553.055 137.321 552.146 133.317C550.352 125.428 543.652 107.983 540.529 100.249C539.075 95.7264 537.438 81.9638 542.769 63.4854C546.149 51.7669 544.23 40.9608 541.65 32.7734C540.361 28.6813 538.903 25.2325 537.859 22.6592C537.335 21.3665 536.922 20.3086 536.68 19.4941C536.559 19.087 536.485 18.758 536.46 18.502C536.434 18.2364 536.464 18.1034 536.492 18.0479C536.524 17.9843 536.649 17.8391 536.953 17.6172C537.24 17.4079 537.636 17.1659 538.133 16.8955C539.126 16.3554 540.485 15.722 542.098 15.0303C545.321 13.6479 549.523 12.0474 553.759 10.5146C557.993 8.98239 562.257 7.5195 565.6 6.41211C568.961 5.29848 571.353 4.55789 571.877 4.45312C572.102 4.40803 572.666 4.38513 573.55 4.38867C574.413 4.39213 575.534 4.42011 576.837 4.46191C579.463 4.54617 582.738 4.68452 586.165 4.79688C589.569 4.90847 593.063 4.99185 596.015 4.96387C598.945 4.93609 601.403 4.79876 602.695 4.44629C606.564 3.39127 611.303 1.39657 613.332 0.46875L620.025 2.04297Z" fill="#B4FFA4" stroke="black" stroke-width="0.89242"/>
</svg>
