<svg width="3087" height="811" viewBox="0 0 3087 811" fill="none" xmlns="http://www.w3.org/2000/svg">
<rect opacity="0.2" width="3087" height="810" fill="#E1E1E1"/>
<rect opacity="0.2" width="1007" height="810" fill="#D5D5D5"/>
<rect opacity="0.2" x="1993" y="1" width="1094" height="810" fill="#F3F3F3"/>
<path d="M2615.56 0.446289C2613.4 4.11638 2610.27 9.61136 2607.41 14.9727C2604.39 20.6566 2601.65 26.2384 2600.74 29.3242C2599.63 33.0954 2598.94 35.502 2598.88 37.5811C2598.82 39.7016 2599.42 41.4566 2600.78 43.9424C2603.49 48.9108 2605.19 51.0127 2605.19 55.3301V66.9316C2605.19 70.33 2606.1 73.5381 2606.75 77.2715C2607.42 81.0308 2607.86 85.4432 2606.97 91.4072C2605.19 103.438 2604.72 111.141 2607 117.067C2608.1 119.928 2608.54 122.342 2609.04 124.644C2609.55 126.941 2610.12 129.12 2611.5 131.415C2614.12 135.798 2614.06 139.182 2612.83 141.219C2612.63 141.554 2612.22 141.722 2611.52 141.64C2610.82 141.558 2609.98 141.238 2609.14 140.778C2608.3 140.321 2607.51 139.745 2606.94 139.185C2606.65 138.904 2606.43 138.637 2606.28 138.399C2606.13 138.154 2606.08 137.981 2606.08 137.879C2606.08 137.674 2606.01 137.457 2605.92 137.261C2605.83 137.054 2605.7 136.821 2605.55 136.568C2605.25 136.063 2604.82 135.443 2604.31 134.744C2603.8 134.044 2603.21 133.252 2602.58 132.403C2601.94 131.553 2601.26 130.643 2600.58 129.698C2599.22 127.807 2597.85 125.788 2596.8 123.86C2595.74 121.922 2595.03 120.123 2594.92 118.66C2594.7 115.59 2595.25 110.506 2595.92 105.307C2596.59 100.138 2597.37 94.8678 2597.6 91.5029C2598.05 84.7885 2597.6 73.1274 2595.8 66.8086C2595.34 65.2007 2594.51 63.4382 2593.55 61.6123C2592.58 59.7906 2591.46 57.8594 2590.41 55.9512C2589.35 54.0309 2588.36 52.1126 2587.63 50.2646C2586.9 48.4143 2586.44 46.6613 2586.44 45.0674C2586.44 38.3442 2586 35.6429 2585.55 32.5098C2585.33 31.0131 2585.44 28.5081 2586.04 26.2168C2586.34 25.0739 2586.76 24.0053 2587.3 23.1504C2587.85 22.2951 2588.51 21.6796 2589.28 21.3896C2591.12 20.6984 2593.5 19.2185 2595.63 17.6494C2597.76 16.0815 2599.7 14.3808 2600.63 13.2188C2601.02 12.7267 2601.48 11.8739 2601.95 10.8564C2602.43 9.8269 2602.95 8.58993 2603.46 7.30273C2604.42 4.87006 2605.35 2.23916 2605.95 0.446289H2615.56Z" fill="#B4FFA4" stroke="black" stroke-width="0.89242"/>
</svg>
