<svg width="3087" height="811" viewBox="0 0 3087 811" fill="none" xmlns="http://www.w3.org/2000/svg">
<rect opacity="0.2" width="3087" height="810" fill="#E1E1E1"/>
<rect opacity="0.2" width="1007" height="810" fill="#D5D5D5"/>
<rect opacity="0.2" x="1993" y="1" width="1094" height="810" fill="#F3F3F3"/>
<path d="M2185.54 0.446289C2185.56 1.94508 2185.63 4.09046 2185.81 6.15234C2185.91 7.29041 2186.05 8.40971 2186.23 9.38379C2186.4 10.3482 2186.63 11.2067 2186.93 11.8008C2187.05 12.044 2187.12 12.4438 2187.13 13.0117C2187.13 13.5691 2187.07 14.2433 2186.95 15.0039C2186.71 16.5248 2186.25 18.3449 2185.72 20.1787C2184.67 23.8482 2183.34 27.5071 2182.89 28.8623C2182.62 29.6464 2182.7 30.4428 2182.92 31.2012C2183.15 31.9555 2183.53 32.7032 2183.92 33.4053C2184.33 34.1246 2184.73 34.7778 2185.04 35.4131C2185.36 36.048 2185.54 36.5848 2185.54 37.0352C2185.54 38.1274 2185.32 42.6805 2184.65 47.4033C2184.32 49.7637 2183.88 52.1532 2183.3 54.168C2182.71 56.2051 2182.01 57.779 2181.21 58.584C2180.27 59.5233 2179.32 60.9641 2178.44 62.6523C2177.55 64.3473 2176.7 66.319 2175.97 68.3418C2174.52 72.3732 2173.49 76.6706 2173.49 79.4258C2173.49 80.1999 2173.79 81.0839 2174.27 82.0254C2174.75 82.9758 2175.43 84.0305 2176.23 85.1572C2177.84 87.4076 2179.98 90.0047 2182.12 92.6982C2184.27 95.4021 2186.42 98.2142 2188.05 100.928C2189.69 103.651 2190.79 106.222 2190.9 108.45C2191.11 113.009 2188.93 118.718 2186.31 123.9C2183.7 129.068 2180.71 133.613 2179.36 135.864C2177.98 138.165 2177.41 140.688 2176.91 142.796C2176.65 143.861 2176.42 144.808 2176.12 145.599C2175.82 146.389 2175.47 146.972 2175 147.347C2174.83 147.485 2174.64 147.53 2174.42 147.493C2174.17 147.454 2173.87 147.316 2173.52 147.062C2172.81 146.551 2172 145.66 2171.17 144.579C2170.34 143.505 2169.51 142.276 2168.75 141.112C2167.99 139.957 2167.28 138.855 2166.72 138.065C2166.21 137.359 2165.78 136.203 2165.45 134.694C2165.12 133.197 2164.9 131.395 2164.79 129.432C2164.57 125.503 2164.79 120.962 2165.46 116.98C2165.79 114.987 2166.29 112.769 2166.8 110.45C2167.32 108.137 2167.85 105.727 2168.24 103.371C2169.02 98.6883 2169.28 94.0927 2167.65 90.8271C2166.07 87.6814 2164.08 84.0291 2162.58 80.6924C2161.83 79.0278 2161.21 77.4618 2160.84 76.0996C2160.46 74.7235 2160.35 73.6176 2160.54 72.8408C2160.75 72.007 2161.31 70.7959 2162.11 69.2637C2162.9 67.738 2163.9 65.9545 2164.96 63.9629C2167.08 59.9996 2169.45 55.2782 2170.8 50.5439C2172.15 45.8041 2172.38 41.7413 2172.32 38.3662C2172.29 36.6841 2172.2 35.1638 2172.13 33.835C2172.07 32.4958 2172.04 31.3566 2172.15 30.3916C2172.59 26.4302 2173.92 22.0087 2175.7 17.1084C2176.43 15.0893 2176.96 11.8055 2177.32 8.56055C2177.65 5.52418 2177.85 2.47937 2177.94 0.446289H2185.54Z" fill="#B4FFA4" stroke="black" stroke-width="0.89242"/>
</svg>
