<svg width="3087" height="811" viewBox="0 0 3087 811" fill="none" xmlns="http://www.w3.org/2000/svg">
<rect opacity="0.2" width="3087" height="810" fill="#E1E1E1"/>
<rect opacity="0.2" width="1007" height="810" fill="#D5D5D5"/>
<rect opacity="0.2" x="1993" y="1" width="1094" height="810" fill="#F3F3F3"/>
<path d="M30.1455 0.917969C35.4906 0.270298 41.4582 0.673282 45.377 1.25293L47.9541 3.83008C47.4744 4.03876 46.8454 4.25043 46.1514 4.36328C45.1554 4.52519 44.0686 4.48256 43.1094 4.00293C42.716 3.80624 42.1835 3.66476 41.5723 3.56348C40.9545 3.46114 40.2276 3.39514 39.4277 3.36328C37.8273 3.29954 35.9097 3.37057 33.9414 3.56738C31.9728 3.76423 29.9438 4.08814 28.1211 4.5332C26.3052 4.97661 24.6651 5.54687 23.4932 6.25C22.2255 7.01061 21.5396 8.38074 21.2344 9.97949C20.9287 11.5808 20.9907 13.476 21.2734 15.3984C21.8385 19.2406 23.3055 23.3148 24.6787 25.6035C25.3815 26.7746 26.9003 28.4291 28.7988 30.2998C30.7095 32.1825 33.0447 34.3215 35.415 36.4688C40.1767 40.7823 45.046 45.1001 47.0264 47.5205C47.9676 48.6709 48.7011 50.4627 49.2676 52.7354C49.8316 54.9984 50.2192 57.6926 50.4971 60.6104C51.0532 66.45 51.164 73.12 51.3877 78.9355C51.6092 84.6957 50.7222 94.5914 49.5508 103.963C48.3796 113.332 46.9322 122.122 46.0469 125.663C45.1431 129.278 44.9184 132.55 44.8623 135.579C44.8058 138.628 44.9179 141.369 44.6963 144.028C44.3459 148.232 41.6411 162.099 40.2842 168.747C39.5716 169.087 38.6382 169.451 37.9131 169.561C37.4991 169.623 37.2587 169.585 37.1553 169.525C37.1212 169.506 37.1058 169.486 37.0947 169.453C37.08 169.41 37.0657 169.315 37.1006 169.141C37.2174 168.556 37.4994 165.957 37.8877 162.316C38.2782 158.656 38.7794 153.902 39.3369 148.968C40.4545 139.077 41.79 128.525 42.8936 124.552C44.0209 120.493 44.8043 114.545 45.418 107.684C46.0323 100.815 46.4787 92.9981 46.9248 85.1914C47.3723 77.361 47.1492 70.6415 46.5322 65.3691C45.9172 60.1139 44.9057 56.2478 43.7461 54.1602C42.5976 52.0927 40.7719 50.0472 38.1494 47.4248C36.8353 46.1108 35.3119 44.6428 33.5635 42.9502C31.8139 41.2565 29.8358 39.3339 27.6074 37.1055C18.7707 28.2686 15.2951 15.954 18.7852 6.79199C19.4443 5.06184 20.9008 3.75768 22.9092 2.79883C24.9184 1.83959 27.4396 1.24586 30.1455 0.917969Z" fill="#B4FFA4" stroke="black" stroke-width="0.89242"/>
</svg>
