<svg width="3087" height="811" viewBox="0 0 3087 811" fill="none" xmlns="http://www.w3.org/2000/svg">
<rect opacity="0.2" width="3087" height="810" fill="#E1E1E1"/>
<rect opacity="0.2" width="1007" height="810" fill="#D5D5D5"/>
<rect opacity="0.2" x="1993" y="1" width="1094" height="810" fill="#F3F3F3"/>
<path d="M1204.06 7.02637C1203.12 9.96317 1200.85 16.5071 1198.74 20.7256C1198.05 22.106 1196.63 24.1177 1194.87 26.4746C1193.99 27.6586 1193.01 28.9386 1191.99 30.2793C1190.97 31.6205 1189.9 33.0238 1188.83 34.458C1184.52 40.2156 1180.22 46.4044 1178.69 51.0088C1177.15 55.6184 1176.7 63.247 1176.59 70.3965C1176.54 73.9603 1176.56 77.385 1176.58 80.2314C1176.59 83.0653 1176.59 85.3517 1176.48 86.6055C1176.37 87.7687 1176.56 89.474 1176.91 91.5088C1177.25 93.5334 1177.75 95.8384 1178.25 98.1846C1178.76 100.525 1179.26 102.906 1179.61 105.066C1179.96 107.22 1180.16 109.188 1180.05 110.694C1179.94 112.084 1180.15 113.989 1180.55 116.157C1180.95 118.318 1181.51 120.705 1182.1 123.046C1182.68 125.381 1183.28 127.678 1183.74 129.635C1184.19 131.579 1184.51 133.246 1184.51 134.31C1184.51 134.749 1184.68 135.666 1185 136.995C1185.32 138.305 1185.77 139.968 1186.32 141.868C1187.42 145.669 1188.9 150.405 1190.4 155.146C1191.91 159.889 1193.44 164.623 1194.66 168.435C1195.86 172.229 1196.77 175.127 1196.99 176.156C1197.09 176.583 1197.27 176.873 1197.48 177.068C1197.69 177.265 1197.98 177.391 1198.32 177.443C1199.02 177.55 1199.94 177.339 1200.87 176.86C1201.8 176.386 1202.68 175.674 1203.29 174.854C1203.91 174.033 1204.24 173.14 1204.15 172.286C1204.1 171.842 1203.88 171.071 1203.5 170.006C1203.13 168.954 1202.62 167.652 1202.01 166.166C1200.79 163.192 1199.19 159.505 1197.54 155.623C1194.26 147.889 1190.78 139.357 1189.87 134.389C1188.08 124.534 1187.63 115.128 1186.74 91.043C1185.85 66.9642 1186.73 54.3512 1191.7 44.8604C1196.65 35.4086 1203.4 29.1138 1210.57 23.7383C1211.92 22.7216 1213.12 21.1327 1214.17 19.1904C1215.2 17.2524 1216.08 14.9894 1216.79 12.6533C1218.11 8.33793 1218.9 3.80992 1219.24 0.701172L1204.06 7.02637Z" fill="#B4FFA4" stroke="black" stroke-width="0.89242"/>
</svg>
