<svg width="3087" height="811" viewBox="0 0 3087 811" fill="none" xmlns="http://www.w3.org/2000/svg">
<rect opacity="0.2" width="3087" height="810" fill="#E1E1E1"/>
<rect opacity="0.2" width="1007" height="810" fill="#D5D5D5"/>
<rect opacity="0.2" x="1993" y="1" width="1094" height="810" fill="#F3F3F3"/>
<path d="M751.146 0.77832C756.491 0.130649 762.458 0.533633 766.377 1.11328L768.954 3.69043C768.474 3.89911 767.845 4.11079 767.151 4.22363C766.155 4.38554 765.069 4.34291 764.109 3.86328C763.716 3.66659 763.184 3.52511 762.572 3.42383C761.954 3.32149 761.228 3.25549 760.428 3.22363C758.827 3.15989 756.91 3.23092 754.941 3.42773C752.973 3.62459 750.944 3.94849 749.121 4.39355C747.305 4.83696 745.665 5.40722 744.493 6.11035C743.225 6.87096 742.54 8.2411 742.234 9.83984C741.929 11.4412 741.991 13.3363 742.273 15.2588C742.838 19.1009 744.305 23.1752 745.679 25.4639C746.381 26.635 747.9 28.2894 749.799 30.1602C751.71 32.0429 754.045 34.1819 756.415 36.3291C761.177 40.6426 766.046 44.9604 768.026 47.3809C768.968 48.5312 769.701 50.323 770.268 52.5957C770.832 54.8588 771.219 57.553 771.497 60.4707C772.053 66.3104 772.164 72.9804 772.388 78.7959C772.609 84.5561 771.722 94.4518 770.551 103.823C769.38 113.193 767.932 121.982 767.047 125.523C766.143 129.139 765.918 132.411 765.862 135.439C765.806 138.488 765.918 141.229 765.696 143.889C765.346 148.093 762.641 161.96 761.284 168.607C760.572 168.948 759.638 169.311 758.913 169.421C758.499 169.483 758.259 169.446 758.155 169.386C758.121 169.366 758.106 169.346 758.095 169.313C758.08 169.27 758.066 169.176 758.101 169.001C758.217 168.417 758.499 165.817 758.888 162.177C759.278 158.516 759.779 153.762 760.337 148.828C761.454 138.938 762.79 128.385 763.894 124.412C765.021 120.354 765.804 114.406 766.418 107.544C767.032 100.675 767.479 92.8585 767.925 85.0518C768.372 77.2213 768.149 70.5018 767.532 65.2295C766.917 59.9742 765.906 56.1082 764.746 54.0205C763.598 51.9531 761.772 49.9076 759.149 47.2852C757.835 45.9711 756.312 44.5032 754.563 42.8105C752.814 41.1168 750.836 39.1942 748.607 36.9658C739.771 28.1289 736.295 15.8143 739.785 6.65234C740.444 4.92219 741.901 3.61804 743.909 2.65918C745.918 1.69994 748.44 1.10621 751.146 0.77832Z" fill="#B4FFA4" stroke="black" stroke-width="0.89242"/>
</svg>
