<svg width="3087" height="811" viewBox="0 0 3087 811" fill="none" xmlns="http://www.w3.org/2000/svg">
<rect opacity="0.2" width="3087" height="810" fill="#E1E1E1"/>
<rect opacity="0.2" width="1007" height="810" fill="#D5D5D5"/>
<rect opacity="0.2" x="1993" y="1" width="1094" height="810" fill="#F3F3F3"/>
<path d="M633.846 0.446289C634.606 2.76807 635.854 6.22883 637.263 9.44922C637.999 11.1322 638.781 12.7568 639.562 14.1221C640.338 15.4773 641.134 16.6161 641.906 17.292C642.824 18.0954 644.891 19.51 647.456 21.2637C650.037 23.0282 653.154 25.1576 656.215 27.4111C659.277 29.6657 662.27 32.0366 664.605 34.2822C665.773 35.4051 666.769 36.4901 667.525 37.5068C668.284 38.5277 668.784 39.4563 668.986 40.2676C669.417 41.9925 669.614 45.6722 669.691 50.373C669.768 55.0522 669.726 60.6795 669.698 66.2598C669.67 71.836 669.656 77.3658 669.789 81.8369C669.855 84.0722 669.959 86.0501 670.116 87.6406C670.272 89.2136 670.485 90.4603 670.792 91.1982C671.047 91.8096 671.278 92.8814 671.482 94.3408C671.685 95.7876 671.857 97.5761 672.007 99.5938C672.306 103.629 672.515 108.557 672.71 113.467C672.905 118.372 673.087 123.259 673.331 127.197C673.453 129.166 673.591 130.905 673.756 132.294C673.918 133.666 674.111 134.747 674.359 135.367C674.56 135.869 674.743 136.741 674.898 137.928C675.053 139.103 675.176 140.553 675.27 142.186C675.457 145.45 675.527 149.428 675.499 153.382C675.471 157.335 675.345 161.259 675.144 164.414C675.043 165.992 674.923 167.373 674.788 168.468C674.651 169.578 674.502 170.352 674.355 170.742C674.079 171.48 673.445 172.022 672.565 172.391C671.685 172.76 670.6 172.935 669.52 172.962C668.441 172.989 667.395 172.867 666.603 172.662C666.205 172.559 665.888 172.441 665.667 172.319C665.557 172.259 665.481 172.204 665.433 172.158C665.384 172.112 665.378 172.09 665.38 172.096C665.385 172.11 665.375 172.077 665.363 171.949C665.353 171.838 665.343 171.686 665.334 171.493C665.316 171.108 665.302 170.577 665.291 169.918C665.269 168.6 665.26 166.781 665.257 164.616C665.25 160.289 665.264 154.582 665.236 148.753C665.208 142.923 665.138 136.964 664.964 132.125C664.877 129.706 664.762 127.562 664.614 125.853C664.467 124.16 664.284 122.847 664.042 122.12C663.835 121.5 663.629 120.316 663.435 118.662C663.241 117.022 663.063 114.955 662.899 112.596C662.572 107.876 662.307 101.998 662.112 96.0322C661.722 84.0937 661.611 71.8419 661.833 67.8486C662.055 63.8536 662.504 58.7955 662.224 53.9102C661.943 49.0297 660.931 44.2292 658.166 40.7725C655.431 37.3531 651.657 35.0121 648.127 33.0205C646.35 32.018 644.651 31.1116 643.137 30.1895C641.625 29.2686 640.339 28.3555 639.401 27.3594C635.894 23.6332 632.908 17.4557 630.679 11.8271C628.702 6.83565 627.341 2.34089 626.745 0.446289H633.846Z" fill="#B4FFA4" stroke="black" stroke-width="0.89242"/>
</svg>
