<svg width="3087" height="815" viewBox="0 0 3087 815" fill="none" xmlns="http://www.w3.org/2000/svg">
<rect opacity="0.2" y="3.42969" width="3087" height="810" fill="#E1E1E1"/>
<rect opacity="0.2" y="3.42969" width="1007" height="810" fill="#D5D5D5"/>
<rect opacity="0.2" x="1993" y="4.42969" width="1094" height="810" fill="#F3F3F3"/>
<path d="M2514.24 3.96777C2518.97 3.80082 2524.19 3.9121 2526.66 3.91211C2529.9 3.91211 2532.97 4.74366 2534.63 5.34961C2533.85 5.88348 2532.89 6.60324 2531.96 7.40039C2530.73 8.4576 2529.52 9.69663 2528.94 10.8525C2528.55 11.6369 2528.54 12.3951 2528.88 13.1123C2529.21 13.7994 2529.84 14.4106 2530.64 14.9844C2532.25 16.1306 2534.75 17.2664 2537.63 18.5957C2538.99 19.2238 2540.33 20.4477 2541.61 22.0088C2542.89 23.5641 2544.07 25.4223 2545.13 27.2793C2546.18 29.135 2547.09 30.9796 2547.83 32.5039C2548.56 34.0104 2549.13 35.2427 2549.48 35.8232C2549.86 36.4587 2550.53 36.664 2551.22 36.6533C2551.89 36.6427 2552.67 36.4251 2553.44 36.1201C2554.86 35.5582 2556.37 34.6472 2557.43 33.918C2558.04 34.4236 2558.77 35.1341 2559.23 35.8301C2559.5 36.2313 2559.65 36.5854 2559.68 36.8652C2559.7 37.1104 2559.64 37.3012 2559.41 37.4678C2558.37 38.2487 2558.02 39.5241 2557.79 40.6973C2557.74 40.9961 2557.69 41.2979 2557.64 41.5898C2557.59 41.8842 2557.54 42.1695 2557.49 42.4443C2557.38 42.9977 2557.25 43.4805 2557.05 43.8721C2556.97 44.0353 2556.88 44.1326 2556.78 44.1973C2556.68 44.2639 2556.55 44.3127 2556.37 44.3408C2555.97 44.4009 2555.45 44.3539 2554.7 44.2959C2553.22 44.1826 2551.15 44.0662 2548.38 44.9863C2544.25 46.3653 2539.74 45.5714 2537.99 44.9961L2532.23 41.8936L2531.97 41.7559L2531.74 41.9346C2530.42 42.9616 2528.22 44.4615 2525.9 45.6133C2524.75 46.1889 2523.58 46.6722 2522.49 46.9678C2521.39 47.2649 2520.41 47.3625 2519.61 47.2031C2518.42 46.9645 2516.76 47.0584 2514.95 47.2959C2513.13 47.5351 2511.1 47.9283 2509.12 48.3184C2507.13 48.7099 2505.21 49.098 2503.58 49.333C2502.77 49.4504 2502.05 49.5279 2501.43 49.5498C2500.81 49.5719 2500.33 49.5355 2500.01 49.4434C2499.49 49.2953 2498.84 49.3901 2498.15 49.5918C2497.45 49.7988 2496.63 50.1419 2495.75 50.5723C2493.98 51.4336 2491.9 52.6714 2489.84 53.9551C2487.75 55.2509 2485.72 56.5699 2483.97 57.6494C2483.1 58.1848 2482.32 58.6503 2481.66 59.0088C2480.99 59.3718 2480.47 59.6091 2480.13 59.7061C2479.27 59.953 2478.68 60.3669 2478.26 60.9268C2477.85 61.4702 2477.63 62.1241 2477.43 62.7988C2477.03 64.1677 2476.72 65.7481 2475.44 67.4531C2474.13 69.1929 2471.05 72.062 2467.64 75.0254C2464.24 77.9765 2460.56 80.9838 2458.11 82.9922C2456.79 84.0706 2456.25 85.2759 2456.21 86.5312C2456.17 87.7561 2456.61 88.9787 2457.15 90.1104C2457.42 90.6799 2457.72 91.2414 2458.01 91.7764C2458.3 92.3153 2458.58 92.8264 2458.8 93.3145C2459.27 94.3158 2459.47 95.1001 2459.3 95.709C2458.46 98.6351 2455.5 100.787 2452.9 101.655C2452.43 101.811 2452.04 102.196 2451.71 102.655C2451.38 103.124 2451.07 103.727 2450.78 104.407C2450.2 105.769 2449.68 107.509 2449.2 109.269C2448.73 111.011 2448.29 112.856 2447.9 114.325C2447.7 115.072 2447.51 115.738 2447.34 116.282C2447.16 116.835 2446.99 117.234 2446.85 117.467C2446.46 118.131 2446.37 118.873 2446.41 119.612C2446.46 120.345 2446.64 121.121 2446.8 121.864C2447.14 123.407 2447.42 124.803 2446.84 125.975C2446.12 127.417 2446.01 129.417 2445.95 131.292C2445.92 132.25 2445.91 133.183 2445.85 134.049C2445.79 134.915 2445.68 135.68 2445.47 136.296C2445.29 136.836 2444.82 137.379 2444.11 137.858C2443.41 138.334 2442.51 138.719 2441.55 138.96C2439.6 139.449 2437.54 139.305 2436.37 138.325C2435.76 137.823 2435.53 137.357 2435.46 136.904C2435.38 136.43 2435.48 135.913 2435.67 135.284C2436.04 134.071 2436.76 132.488 2436.52 130.581C2436.28 128.602 2434.69 127.052 2433.24 125.883C2432.87 125.585 2432.5 125.305 2432.16 125.046C2431.81 124.785 2431.49 124.547 2431.21 124.325C2430.93 124.102 2430.7 123.905 2430.53 123.73C2430.36 123.549 2430.28 123.426 2430.26 123.355C2430.26 123.358 2430.25 123.348 2430.25 123.32C2430.25 123.293 2430.25 123.253 2430.25 123.202C2430.26 123.099 2430.29 122.963 2430.33 122.795C2430.41 122.458 2430.56 122.028 2430.76 121.525C2431.15 120.522 2431.72 119.279 2432.3 117.993C2432.89 116.713 2433.49 115.392 2433.95 114.251C2434.18 113.68 2434.37 113.146 2434.51 112.68C2434.65 112.222 2434.74 111.795 2434.74 111.449C2434.74 110.603 2434.05 110.103 2433.35 109.775C2432.62 109.436 2431.64 109.174 2430.68 108.9C2429.7 108.621 2428.72 108.324 2427.91 107.913C2427.09 107.502 2426.5 107.006 2426.23 106.365C2426.09 106.05 2426.07 105.781 2426.12 105.546C2426.18 105.307 2426.31 105.068 2426.53 104.829C2426.98 104.341 2427.75 103.911 2428.71 103.557C2430.6 102.852 2433 102.524 2434.3 102.524C2434.73 102.524 2435.11 102.385 2435.4 102.112C2435.68 101.847 2435.85 101.487 2435.94 101.099C2436.12 100.331 2436.02 99.3399 2435.73 98.3301C2435.15 96.3096 2433.76 93.9683 2431.86 92.7764C2430.95 92.2116 2429.95 92.3775 2429.01 92.8799C2428.08 93.3796 2427.14 94.2489 2426.25 95.2588C2424.83 96.8789 2423.5 98.938 2422.52 100.657C2422.08 98.0758 2420.85 93.8166 2418.14 90.209C2417.16 88.895 2416.6 87.8521 2416.31 86.9385C2416.02 86.0319 2415.98 85.2298 2416.05 84.3838C2416.14 83.5141 2416.34 82.637 2416.53 81.5176C2416.72 80.4147 2416.89 79.1326 2416.89 77.5371C2416.89 74.435 2416.9 72.3737 2416.61 70.8711C2416.46 70.1074 2416.24 69.4682 2415.89 68.8965C2415.54 68.3249 2415.08 67.8415 2414.5 67.3721C2414.04 67.0098 2413.72 66.4191 2413.56 65.6494C2413.4 64.8819 2413.41 63.9668 2413.59 63.0088C2413.97 61.0876 2415.03 59.0745 2416.71 57.8145C2416.99 57.6073 2417.54 57.395 2418.38 57.2021C2419.21 57.0134 2420.26 56.855 2421.48 56.7256C2423.92 56.4668 2427.03 56.3249 2430.36 56.2637C2436.97 56.142 2444.44 56.3386 2449.35 56.5596L2455.25 59.6885H2444.56C2443.95 59.6885 2443.05 59.8924 2442.25 60.4912C2441.43 61.1008 2440.74 62.1031 2440.55 63.6484C2440.34 65.3301 2439.6 66.7092 2438.68 67.957C2438.22 68.5821 2437.71 69.1698 2437.2 69.7471C2436.7 70.3199 2436.19 70.8888 2435.73 71.457C2435.42 71.8435 2435.3 72.3881 2435.26 72.9668C2435.23 73.5573 2435.3 74.2491 2435.44 74.9912C2435.72 76.4773 2436.3 78.2271 2437.07 79.8975C2437.83 81.567 2438.79 83.1821 2439.82 84.3877C2440.83 85.5687 2442.01 86.4609 2443.22 86.4609C2444.31 86.4609 2445.15 86.186 2445.86 85.6807C2446.56 85.1844 2447.1 84.4853 2447.61 83.6904C2448.65 82.075 2449.61 80.0315 2451.58 77.8359C2455.66 73.3102 2458.84 66.5137 2458.84 60.1348C2458.84 56.9762 2458.5 55.3671 2458.15 54.2549C2457.79 53.1188 2457.5 52.6801 2457.5 51.6562C2457.5 51.2954 2457.38 50.8786 2457.22 50.4512C2457.06 50.0151 2456.83 49.5263 2456.57 49.0088C2456.31 48.4902 2456.01 47.9326 2455.7 47.3594C2455.4 46.7842 2455.08 46.1915 2454.77 45.5967C2454.16 44.402 2453.62 43.2235 2453.34 42.1904C2453.06 41.1367 2453.07 40.3564 2453.41 39.8564C2453.54 39.6526 2453.9 39.4125 2454.56 39.1895C2455.19 38.9742 2456.03 38.8015 2457.01 38.6709C2458.96 38.4101 2461.43 38.3263 2463.9 38.3818C2466.37 38.4373 2468.82 38.6316 2470.73 38.9209C2471.68 39.0658 2472.49 39.2327 2473.09 39.4141C2473.4 39.5049 2473.64 39.5961 2473.81 39.6846C2474 39.7776 2474.08 39.8482 2474.1 39.877C2474.2 40.013 2474.29 40.2543 2474.35 40.6348C2474.41 41.0062 2474.44 41.4592 2474.46 41.9775C2474.48 42.9919 2474.45 44.2613 2474.57 45.4521C2474.68 46.6449 2474.94 47.8576 2475.6 48.7783C2476.28 49.7313 2477.34 50.3183 2478.92 50.3184C2480.58 50.3184 2482.11 49.147 2483.5 47.5117C2484.91 45.8567 2486.25 43.6184 2487.51 41.2695C2488.77 38.9207 2489.96 36.4231 2491.05 34.2598C2492.15 32.0764 2493.13 30.2515 2493.99 29.1787C2495.3 27.5464 2496.98 27.2016 2498.61 27.4443C2500.24 27.6881 2501.78 28.5263 2502.71 29.2334C2503.72 30.3806 2505.48 31.9567 2507.6 33.0342C2509.73 34.1236 2512.29 34.7343 2514.77 33.7783C2517.86 32.5916 2519.16 30.2022 2519.68 27.6504C2520.19 25.1374 2519.97 22.3762 2519.97 20.4219C2519.97 19.2497 2519.32 18.1674 2518.4 17.2061C2517.48 16.2388 2516.23 15.3372 2514.9 14.5205C2513.58 13.7017 2512.16 12.9552 2510.88 12.3057C2509.59 11.6511 2508.46 11.103 2507.7 10.6641C2506.17 9.79338 2505.38 8.96411 2505.04 8.14844C2504.71 7.3473 2504.79 6.47224 2505.21 5.41699C2505.22 5.38531 2505.27 5.31729 2505.39 5.22656C2505.52 5.13728 2505.7 5.04393 2505.95 4.95117C2506.44 4.76548 2507.13 4.60574 2507.97 4.47168C2509.65 4.20417 2511.87 4.05127 2514.24 3.96777Z" fill="#E7FFA4" stroke="black" stroke-width="0.89242"/>
</svg>
