<svg width="3087" height="815" viewBox="0 0 3087 815" fill="none" xmlns="http://www.w3.org/2000/svg">
<rect opacity="0.2" y="3.42969" width="3087" height="810" fill="#E1E1E1"/>
<rect opacity="0.2" y="3.42969" width="1007" height="810" fill="#D5D5D5"/>
<rect opacity="0.2" x="1993" y="4.42969" width="1094" height="810" fill="#F3F3F3"/>
<path d="M1894.12 2.87598C1894.99 2.87601 1895.82 2.95733 1896.5 3.11523C1896.85 3.19523 1897.14 3.29122 1897.38 3.39746C1897.2 3.57699 1897.02 3.80431 1896.86 4.05273C1896.49 4.60963 1896.12 5.36248 1895.73 6.13477C1895.34 6.91877 1894.93 7.73785 1894.48 8.47168C1894.03 9.20957 1893.56 9.82684 1893.06 10.2246C1892.05 11.0358 1891.54 12.3504 1891.29 13.5859C1891.08 14.5974 1891.04 15.6106 1891.08 16.374H1886.65C1885.87 16.374 1885.23 16.6365 1884.65 16.9902C1884.1 17.3271 1883.53 17.7971 1882.99 18.1855C1881.87 18.9827 1880.52 19.7094 1878.21 19.499C1875.72 19.2723 1871.45 19.387 1867.2 19.7783C1862.96 20.169 1858.67 20.8412 1856.15 21.7549C1854.86 22.2247 1853.95 22.8813 1853.33 23.6484C1852.7 24.414 1852.37 25.2656 1852.19 26.0967C1852.01 26.9231 1851.98 27.7418 1851.97 28.4404C1851.95 29.1682 1851.95 29.7139 1851.86 30.0977C1851.82 30.2468 1851.72 30.4546 1851.54 30.7129C1851.37 30.9663 1851.13 31.2473 1850.85 31.542C1850.28 32.1313 1849.53 32.7536 1848.75 33.2969C1847.96 33.8414 1847.14 34.2948 1846.43 34.5566C1846.07 34.6874 1845.75 34.7657 1845.49 34.7891C1845.22 34.8126 1845.03 34.7778 1844.9 34.7158C1844.82 34.6731 1844.71 34.564 1844.61 34.3057C1844.5 34.0503 1844.43 33.6986 1844.39 33.2578C1844.3 32.3776 1844.34 31.2387 1844.42 30.0137C1844.47 29.4041 1844.52 28.7797 1844.57 28.1621C1844.62 27.5459 1844.67 26.9353 1844.71 26.3594C1844.79 25.2218 1844.82 24.1675 1844.7 23.4395C1844.62 22.9726 1844.3 22.5023 1843.9 22.0596C1843.48 21.6036 1842.92 21.119 1842.27 20.626C1840.96 19.6386 1839.24 18.5811 1837.44 17.5996C1835.65 16.6171 1833.77 15.7041 1832.13 15.0078C1830.52 14.3184 1829.1 13.822 1828.26 13.7012C1827.79 13.6348 1827.23 13.6873 1826.61 13.8154C1825.98 13.9449 1825.28 14.1578 1824.52 14.4346C1823.01 14.9883 1821.27 15.808 1819.55 16.7646C1817.84 17.7215 1816.13 18.8213 1814.68 19.9385C1813.24 21.0503 1812.02 22.2013 1811.31 23.2656C1810.59 24.3437 1810.05 26.0316 1809.63 27.9932C1809.21 29.9687 1808.9 32.2744 1808.67 34.626C1808.23 39.33 1808.12 44.2535 1808.12 47.1621C1808.12 50.0384 1807.78 54.816 1807.23 59.3789C1806.95 61.6589 1806.61 63.879 1806.24 65.7754C1805.87 67.6807 1805.45 69.2283 1805.03 70.1836C1804.55 71.2608 1804.32 72.663 1804.24 74.1602C1804.15 75.665 1804.21 77.3041 1804.32 78.875C1804.44 80.4466 1804.6 81.9608 1804.74 83.2148C1804.88 84.4849 1804.99 85.4562 1804.99 85.9824C1804.99 86.32 1805.08 86.7924 1805.21 87.3379C1805.34 87.8951 1805.53 88.5727 1805.75 89.3389C1806.18 90.8765 1806.74 92.7904 1807.23 94.8984C1808.24 99.1274 1809 104.065 1808.12 108.201C1807.7 110.219 1806.52 112.187 1804.93 113.986C1803.34 115.783 1801.35 117.389 1799.34 118.683C1797.33 119.977 1795.31 120.949 1793.68 121.485C1792.86 121.754 1792.15 121.909 1791.59 121.946C1791.01 121.985 1790.69 121.892 1790.55 121.777C1790.49 121.73 1790.46 121.685 1790.45 121.631C1790.44 121.565 1790.44 121.458 1790.49 121.296C1790.6 120.963 1790.86 120.519 1791.28 119.971C1792.12 118.882 1793.45 117.539 1794.88 116.079C1796.3 114.632 1797.81 113.081 1798.96 111.608C1799.54 110.871 1800.04 110.141 1800.39 109.443C1800.75 108.75 1800.98 108.057 1800.98 107.4C1800.98 105.171 1800.98 101.701 1800.81 98.5088C1800.72 96.9129 1800.6 95.3768 1800.41 94.0947C1800.22 92.8347 1799.96 91.7494 1799.57 91.1074C1799.29 90.6422 1799.13 89.9203 1799.05 88.9492C1798.97 87.9891 1798.97 86.8524 1798.97 85.5918C1798.97 83.0917 1798.97 80.1359 1798.29 77.3965C1796.98 72.1699 1798.27 70.0965 1799.63 63.3135C1800.31 59.9153 1800.31 56.861 1800.14 54.1621C1800.05 52.8158 1799.93 51.5511 1799.82 50.3857C1799.72 49.2149 1799.64 48.1443 1799.64 47.1621C1799.64 45.2247 1800.17 43.7474 1800.63 41.8574C1801.08 39.9772 1801.43 37.7987 1800.97 34.6055C1800.54 31.5582 1801.08 27.6104 1801.58 24.1348C1801.83 22.4134 1802.07 20.8038 1802.17 19.5146C1802.21 18.87 1802.22 18.2874 1802.17 17.7998C1802.13 17.3252 1802.02 16.8748 1801.78 16.5518C1801.57 16.2677 1801.21 15.983 1800.81 15.7061C1800.4 15.4227 1799.89 15.122 1799.34 14.8125C1798.23 14.1951 1796.88 13.5183 1795.6 12.8545C1794.32 12.1845 1793.12 11.5275 1792.26 10.9326C1791.84 10.6337 1791.52 10.3669 1791.33 10.1396C1791.13 9.89999 1791.14 9.79834 1791.14 9.78906C1791.19 9.62706 1791.23 9.5984 1791.23 9.59766C1791.24 9.59493 1791.28 9.5697 1791.42 9.58691C1791.56 9.60468 1791.76 9.66069 1792.02 9.76074C1792.28 9.85958 1792.58 9.99012 1792.93 10.1445C1794.33 10.7592 1796.4 11.6803 1799.15 11.9102C1801.92 12.1406 1805 11.4496 1807.91 10.5537C1809.37 10.1044 1810.8 9.59878 1812.14 9.125C1813.48 8.64968 1814.73 8.20779 1815.83 7.87695C1816.67 7.62321 1818.25 7.38987 1820.29 7.18359C1822.32 6.97861 1824.76 6.80393 1827.33 6.65723C1831.85 6.39854 1836.71 6.23088 1840.25 6.14355C1839.04 7.09131 1837.52 8.31314 1836.73 9.02148L1836.36 9.36523C1836.29 9.4311 1836.22 9.53162 1836.19 9.66895C1836.15 9.81728 1836.19 9.95581 1836.25 10.0654C1836.36 10.2482 1836.54 10.3466 1836.66 10.3994C1836.93 10.52 1837.34 10.6117 1837.8 10.6855C1838.75 10.8365 1840.11 10.9348 1841.57 10.9629C1843.04 10.991 1844.61 10.9499 1846 10.8154C1847.37 10.6829 1848.61 10.4552 1849.37 10.0801C1850.05 9.73657 1850.57 9.42071 1850.99 9.1709C1851.41 8.91514 1851.7 8.7467 1851.98 8.65332C1852.48 8.48946 1853 8.52932 1854.32 9.1875C1854.77 9.41195 1855.37 9.44344 1856.01 9.38672C1856.66 9.32857 1857.43 9.16983 1858.27 8.94727C1859.94 8.5019 1861.96 7.78371 1863.99 7.03125C1866.03 6.27559 1868.1 5.48531 1869.91 4.88184C1871.74 4.27232 1873.23 3.87999 1874.15 3.87988C1876.04 3.87988 1877.97 4.72254 1879.75 5.66797C1880.19 5.90262 1880.62 6.14187 1881.03 6.37305C1881.44 6.60339 1881.85 6.82684 1882.23 7.02832C1882.98 7.42572 1883.7 7.7612 1884.33 7.88672C1885 8.02187 1885.57 7.88497 1886.05 7.57422C1886.51 7.27713 1886.89 6.83029 1887.23 6.37891C1887.94 5.43407 1888.54 4.42743 1889.55 3.81641C1890.57 3.20882 1892.37 2.87598 1894.12 2.87598Z" fill="#E7FFA4" stroke="black" stroke-width="0.89242"/>
</svg>
