<svg width="3087" height="815" viewBox="0 0 3087 815" fill="none" xmlns="http://www.w3.org/2000/svg">
<rect opacity="0.2" y="3.42969" width="3087" height="810" fill="#E1E1E1"/>
<rect opacity="0.2" y="3.42969" width="1007" height="810" fill="#D5D5D5"/>
<rect opacity="0.2" x="1993" y="4.42969" width="1094" height="810" fill="#F3F3F3"/>
<path d="M2790.21 4.14203C2793.86 4.17594 2797.71 5.13483 2801.05 6.43802C2804.4 7.74262 2807.2 9.37722 2808.79 10.7336C2810.5 12.2049 2813.96 13.5701 2817.31 14.2932C2818.99 14.657 2820.68 14.8645 2822.15 14.8372C2823.6 14.8102 2824.91 14.5534 2825.77 13.9117C2827.43 12.6677 2827.58 10.6741 2827.78 9.24369C2827.89 8.4837 2828 7.90795 2828.25 7.51652C2828.37 7.33389 2828.51 7.1969 2828.7 7.10272C2828.9 7.00662 2829.17 6.94198 2829.55 6.94552C2831.25 6.96134 2836.19 7.52247 2841.17 8.08946C2846.1 8.65212 2851.07 9.22141 2852.75 9.23696C2853.6 9.24483 2854.11 9.11817 2854.47 8.82619C2854.64 8.68721 2854.76 8.52805 2854.84 8.40577C2854.93 8.27631 2855 8.18106 2855.09 8.08387C2855.26 7.90805 2855.58 7.68258 2856.39 7.50801C2857.21 7.33166 2858.5 7.21403 2860.56 7.23319C2864.7 7.27156 2870.52 7.84273 2877.06 8.4234C2883.6 9.00297 2890.84 9.59031 2897.79 9.65479C2904.74 9.71917 2913.57 9.10782 2921.88 8.84011C2930.24 8.57115 2938.05 8.64963 2943.07 10.0591C2950.51 12.1462 2955.74 11.3448 2958.02 10.4498C2958.25 14.517 2959.8 23.3368 2964.62 31.1691C2967.78 36.2983 2970.88 41.5883 2973.23 46.4117C2975.59 51.2507 2977.16 55.5612 2977.3 58.7497C2977.37 60.451 2977.93 62.7207 2978.57 65.13C2979.21 67.5612 2979.95 70.1575 2980.42 72.5752C2980.9 75.0046 2981.09 77.1756 2980.68 78.7683C2980.48 79.5544 2980.14 80.176 2979.64 80.623C2979.14 81.0681 2978.45 81.3721 2977.48 81.4634C2975.5 81.651 2974.22 81.1737 2973.33 80.3535C2972.42 79.5144 2971.85 78.2641 2971.42 76.7907C2971.2 76.0585 2971.02 75.286 2970.84 74.4982C2970.67 73.7147 2970.5 72.9118 2970.3 72.1415C2969.9 70.6094 2969.39 69.1236 2968.46 68.0383C2966.83 66.1252 2966.4 63.7904 2965.65 61.2961C2964.9 58.8277 2963.84 56.3191 2960.87 54.3921C2959.46 53.4792 2958.3 52.612 2957.17 51.7903C2956.05 50.9709 2954.96 50.1964 2953.72 49.4906C2951.23 48.072 2948.15 46.9488 2942.91 46.2028C2940.26 45.8252 2936.72 45.9267 2932.83 46.2723C2928.93 46.6186 2924.64 47.2125 2920.48 47.8336C2916.32 48.4557 2912.3 49.1042 2908.91 49.5614C2905.51 50.0205 2902.81 50.2772 2901.27 50.138C2900.53 50.0711 2899.44 49.7776 2898.07 49.2801C2896.7 48.7858 2895.07 48.1022 2893.26 47.2745C2889.64 45.6194 2885.3 43.3992 2880.82 41.0026C2871.86 36.2099 2862.38 30.7199 2857.13 27.6446C2851.74 24.4914 2845.72 24.6279 2839.9 25.18C2836.97 25.4581 2834.12 25.8389 2831.36 25.9856C2828.6 26.1318 2825.99 26.0407 2823.6 25.3872C2815.72 23.2391 2809.26 21.3915 2807.01 20.7371L2806.79 20.6715L2806.61 20.8222C2802.9 23.8859 2792.98 31.0998 2783.01 35.4126C2779.94 36.7407 2775.62 37.6246 2770.66 38.1634C2765.71 38.7014 2760.16 38.8921 2754.63 38.8517C2743.58 38.7708 2732.7 37.7632 2727.11 36.7653C2718.17 35.17 2706.3 30.3167 2701.48 28.0848L2701.27 27.9862L2701.07 28.1044C2700.15 28.6446 2698.82 29.7215 2697.76 31.2213C2696.7 32.7253 2695.89 34.6809 2696.09 36.96C2696.18 37.9501 2695.92 38.3951 2695.6 38.6039C2695.24 38.8404 2694.65 38.8951 2693.83 38.737C2692.23 38.425 2690.2 37.3701 2688.81 36.4725L2688.45 36.2397L2688.2 36.5928C2687.8 37.1739 2687.02 37.9625 2686.04 38.4196C2685.08 38.8682 2683.93 38.9954 2682.7 38.3046C2681.9 37.8529 2680.59 36.7376 2679.04 35.2402C2677.5 33.7554 2675.76 31.9303 2674.11 30.0967C2672.46 28.263 2670.9 26.4259 2669.72 24.917C2669.13 24.1621 2668.64 23.4932 2668.27 22.9514C2667.9 22.3918 2667.7 22.0158 2667.65 21.8274C2667.12 19.9287 2665.13 16.1384 2662.56 12.8257C2661.28 11.1638 2659.83 9.60097 2658.33 8.44544C2657.76 8.01043 2657.19 7.62813 2656.6 7.31996C2662.57 7.09984 2675.2 6.40848 2687.53 5.88808C2695.1 5.56907 2702.55 5.31397 2708.32 5.27032C2711.21 5.24849 2713.67 5.27935 2715.5 5.38083C2716.42 5.43161 2717.17 5.50015 2717.74 5.58618C2718.02 5.6292 2718.26 5.6757 2718.43 5.72447C2718.62 5.77509 2718.72 5.82049 2718.77 5.84964C2719.48 6.30636 2719.87 6.9513 2720.17 7.68108C2720.32 8.05103 2720.44 8.42546 2720.58 8.81384C2720.71 9.19344 2720.86 9.584 2721.04 9.94123C2721.43 10.6798 2722.01 11.2946 2723.06 11.4972C2724.07 11.6901 2725.45 11.4976 2727.43 10.8169C2735.17 8.15062 2743.06 8.21957 2750.52 8.28878C2753.49 8.31634 2756.11 8.49597 2758.22 8.5858C2759.27 8.63048 2760.2 8.65362 2760.96 8.62098C2761.71 8.58886 2762.37 8.50147 2762.84 8.29755L2763.11 8.18188L2763.11 7.88792L2763.11 3.89068L2790.21 4.14203Z" fill="#E7FFA4" stroke="black" stroke-width="0.89242"/>
</svg>
