<svg width="3087" height="815" viewBox="0 0 3087 815" fill="none" xmlns="http://www.w3.org/2000/svg">
<rect opacity="0.2" y="3.42969" width="3087" height="810" fill="#E1E1E1"/>
<rect opacity="0.2" y="3.42969" width="1007" height="810" fill="#D5D5D5"/>
<rect opacity="0.2" x="1993" y="4.42969" width="1094" height="810" fill="#F3F3F3"/>
<path d="M1431.34 4.07324C1432.19 4.23756 1433.98 4.46289 1436.48 4.46289H1440.41C1440.25 5.31468 1440.03 6.41865 1439.77 7.43066C1439.61 8.04813 1439.44 8.62292 1439.27 9.08203C1439.19 9.31161 1439.1 9.50551 1439.03 9.6582C1438.94 9.8164 1438.88 9.90663 1438.84 9.94824C1438.64 10.1457 1437.86 10.7635 1436.75 11.625C1435.65 12.4743 1434.25 13.5337 1432.86 14.5938C1431.46 15.653 1430.07 16.7137 1428.97 17.5654C1427.88 18.4048 1427.04 19.0694 1426.79 19.3184C1426.37 19.7352 1424.41 21.4642 1423.26 23.4238C1422.69 24.4036 1422.27 25.5112 1422.39 26.5889C1422.53 27.7061 1423.24 28.6839 1424.67 29.4033C1427.27 30.7029 1430.02 33.2163 1432.17 35.8672C1433.24 37.1887 1434.16 38.5331 1434.84 39.7607C1435.52 40.9971 1435.93 42.0829 1436.03 42.8926C1436.1 43.4201 1436.36 44.0771 1436.73 44.7988C1437.11 45.5313 1437.63 46.3704 1438.25 47.2715C1439.48 49.0746 1441.12 51.1525 1442.89 53.1699C1444.65 55.1875 1446.55 57.1527 1448.29 58.7285C1450.01 60.2909 1451.62 61.5133 1452.82 61.9922C1455.02 62.8727 1458.68 64.7561 1461.91 66.6475C1463.52 67.5921 1465.01 68.5334 1466.15 69.3457C1466.73 69.7521 1467.2 70.1214 1467.56 70.4395C1467.93 70.7692 1468.13 71.007 1468.2 71.1475C1468.41 71.5676 1468.82 72.6501 1469.38 74.1123C1469.93 75.5559 1470.61 77.334 1471.37 79.0996C1472.13 80.8629 1472.96 82.6273 1473.8 84.04C1474.23 84.7464 1474.66 85.3759 1475.09 85.876C1475.52 86.37 1475.98 86.7696 1476.46 86.9756C1477.18 87.283 1478.11 87.9437 1479.14 88.8047C1480.17 89.6582 1481.26 90.6806 1482.29 91.6816C1483.32 92.6843 1484.28 93.6535 1485.04 94.4121C1485.42 94.7889 1485.76 95.1146 1486.03 95.3613C1486.16 95.4846 1486.28 95.5923 1486.39 95.6777C1486.49 95.7578 1486.6 95.8379 1486.7 95.8887C1487.31 96.1967 1487.82 96.0255 1488.28 95.9248C1488.73 95.8229 1489.34 95.7189 1490.38 95.9268C1490.52 95.9546 1490.71 96.0422 1490.97 96.2148C1491.21 96.3843 1491.49 96.6184 1491.8 96.9092C1492.4 97.4908 1493.07 98.2704 1493.74 99.1328C1494.78 100.46 1495.8 101.962 1496.59 103.188C1495.45 102.859 1493.85 102.442 1492.33 102.188C1490.93 101.955 1489.19 102.073 1487.26 102.184C1485.31 102.295 1483.11 102.404 1480.69 102.185C1478.41 101.977 1476.72 100.631 1475.25 98.8828C1474.51 98.0085 1473.84 97.0493 1473.17 96.0986C1472.51 95.1552 1471.86 94.2149 1471.17 93.4141C1469.78 91.7959 1467.92 90.7395 1466.29 89.6025C1464.64 88.4479 1463.17 87.1703 1462.32 85.0605C1460.56 80.6606 1458.72 74.6494 1452.73 71.8818C1449.91 70.5802 1446.94 67.9551 1444.38 65.2852C1441.83 62.6225 1439.73 59.9627 1438.6 58.6143C1437.5 57.2886 1435.7 55.0404 1433.8 52.8105C1431.91 50.5804 1429.88 48.3242 1428.29 46.96C1426.75 45.6386 1424.87 43.6527 1422.91 41.6338C1420.96 39.6295 1418.93 37.5953 1417.11 36.2324C1416.24 35.5821 1415.2 34.5991 1414 33.4561C1412.8 32.321 1411.45 31.0422 1409.99 29.832C1407.07 27.4215 1403.63 25.2217 1399.91 24.9893C1396.21 24.7579 1392.44 26.263 1388.3 28.4424C1386.23 29.5347 1384.04 30.8091 1381.72 32.1377C1379.39 33.4684 1376.92 34.8577 1374.25 36.1904C1368.84 38.8987 1364.78 42.5066 1361.59 45.7002C1360.79 46.4984 1360.04 47.2721 1359.35 47.998C1358.65 48.7252 1358 49.4034 1357.38 50.0166C1356.15 51.2506 1355.1 52.1856 1354.16 52.71C1353.09 53.304 1351.88 54.4076 1350.67 55.7422C1349.45 57.0847 1348.21 58.6908 1347.09 60.3203C1345.97 61.95 1344.95 63.6107 1344.19 65.0654C1343.43 66.5031 1342.9 67.7905 1342.78 68.6543C1342.56 70.1371 1341.81 71.9763 1340.83 73.6191C1339.84 75.2702 1338.65 76.6457 1337.63 77.2588C1337.19 77.522 1336.42 77.6408 1335.39 77.5928C1334.38 77.5458 1333.21 77.3432 1332.06 77.042C1330.91 76.7409 1329.8 76.3457 1328.89 75.9199C1327.96 75.4841 1327.33 75.048 1327.06 74.6963C1326.96 74.5624 1326.85 74.2487 1326.74 73.7119C1326.65 73.1963 1326.57 72.5387 1326.52 71.7773C1326.43 70.2562 1326.43 68.3614 1326.48 66.4434C1326.59 62.5951 1326.93 58.7245 1327.14 57.6494C1327.19 57.4306 1327.32 57.0899 1327.54 56.6348C1327.76 56.1885 1328.06 55.6612 1328.4 55.0771C1329.09 53.9085 1329.98 52.5351 1330.87 51.168C1331.76 49.8049 1332.66 48.4464 1333.36 47.3184C1333.71 46.7542 1334.02 46.2413 1334.25 45.8105C1334.48 45.3915 1334.65 45.0128 1334.73 44.7295C1334.84 44.2825 1334.81 43.788 1334.71 43.3076C1334.61 42.8229 1334.43 42.3214 1334.22 41.8447C1333.89 41.0732 1333.46 40.3398 1333.1 39.8008C1333.47 39.4974 1333.93 39.0922 1334.39 38.6523C1334.99 38.0752 1335.62 37.415 1336 36.8369C1336.28 36.4165 1336.41 35.8871 1336.48 35.3818C1336.52 35.1242 1336.55 34.8553 1336.58 34.5938C1336.61 34.3288 1336.65 34.0689 1336.69 33.8145C1336.85 32.7819 1337.15 32.0013 1338.03 31.6494C1339.2 31.1825 1340.46 30.3762 1341.64 29.5352C1342.81 28.6961 1343.95 27.7861 1344.82 27.1299C1345.21 26.8432 1345.95 26.5283 1346.92 26.1914C1347.88 25.86 1349 25.5283 1350.1 25.1914C1351.18 24.8574 1352.25 24.517 1353.07 24.1729C1353.48 24.0012 1353.85 23.8214 1354.14 23.6318C1354.41 23.4543 1354.69 23.2163 1354.79 22.8984C1354.92 22.5141 1354.88 22.1045 1354.78 21.7305C1354.67 21.3533 1354.49 20.9734 1354.28 20.6211C1354 20.159 1353.66 19.7207 1353.35 19.3623C1354.59 18.8695 1356.28 18.2462 1357.9 17.752C1358.85 17.4625 1359.77 17.2191 1360.56 17.0703C1361.36 16.9182 1361.96 16.8773 1362.32 16.9482C1363.48 17.1805 1365.32 17.2953 1367 17.0059C1368.64 16.7223 1370.33 16.0118 1370.86 14.4209C1371.19 13.4195 1372.12 11.9062 1373.19 10.3857C1374.12 9.0578 1375.13 7.76409 1375.86 6.87012C1376.79 7.49488 1378.62 7.94742 1380.92 6.63477C1381.18 6.48713 1381.61 6.33293 1382.21 6.18066C1382.8 6.03045 1383.53 5.88884 1384.36 5.75781C1386.02 5.49579 1388.08 5.27662 1390.26 5.09668C1394.19 4.77251 1398.5 4.57797 1401.6 4.48828C1399.33 7.27461 1395.35 12.3099 1393.71 14.9355C1393.21 15.7316 1393.11 16.4761 1393.47 17.1074C1393.81 17.6922 1394.47 18.0529 1395.17 18.2842C1396.59 18.7529 1398.55 18.8166 1399.91 18.7412L1400.12 18.7285L1400.25 18.5547C1400.92 17.619 1403.26 15.6182 1407.03 15.6182C1408.24 15.6182 1409.81 15.701 1411.56 15.7988C1413.3 15.8963 1415.2 16.0085 1417.05 16.0645C1418.9 16.1204 1420.7 16.1207 1422.25 15.9932C1423.77 15.8671 1425.11 15.6117 1425.99 15.1133C1427.69 14.1411 1428.31 12.7846 1428.55 11.5186C1428.66 10.8985 1428.69 10.2959 1428.72 9.79297C1428.75 9.26525 1428.78 8.88597 1428.87 8.62012C1429.03 8.13207 1429.49 7.23917 1430.03 6.28809C1430.48 5.4807 1430.97 4.6622 1431.34 4.07324Z" fill="#E7FFA4" stroke="black" stroke-width="0.89242"/>
</svg>
