<svg width="3087" height="815" viewBox="0 0 3087 815" fill="none" xmlns="http://www.w3.org/2000/svg">
<rect opacity="0.2" y="3.42969" width="3087" height="810" fill="#E1E1E1"/>
<rect opacity="0.2" y="3.42969" width="1007" height="810" fill="#D5D5D5"/>
<rect opacity="0.2" x="1993" y="4.42969" width="1094" height="810" fill="#F3F3F3"/>
<path d="M1035.75 0.446289C1035.93 0.445986 1036.17 0.455348 1036.46 0.474609C1037.04 0.513113 1037.81 0.588978 1038.73 0.695312C1040.56 0.907849 1042.95 1.2394 1045.54 1.62402C1050.57 2.36932 1056.36 3.31394 1060.3 3.98047V5.99316L1060.4 6.11719L1064.21 10.7705C1063.32 12.1098 1062.05 14.038 1060.95 15.792C1060.35 16.7308 1059.81 17.6229 1059.38 18.3486C1058.97 19.0555 1058.64 19.6506 1058.54 19.9717C1058.25 20.827 1058.55 21.8694 1059.15 22.7148C1059.77 23.5764 1060.76 24.3184 1062 24.5664C1062.58 24.6827 1063.14 24.5276 1063.64 24.252C1064.14 23.977 1064.61 23.5672 1065.03 23.1162C1065.72 22.3757 1066.31 21.4793 1066.71 20.7568L1068.78 22.1426C1068.81 22.6263 1068.92 23.276 1069.16 23.9111C1069.45 24.6588 1069.96 25.4409 1070.81 25.8662C1071.41 26.1688 1072.01 26.0769 1072.54 25.8301C1073.04 25.5912 1073.53 25.189 1073.98 24.7998C1074.44 24.3941 1074.86 24.0004 1075.28 23.6963C1075.71 23.3909 1076.06 23.2365 1076.36 23.2363C1076.74 23.2363 1077.36 23.3607 1078.19 23.5654C1079 23.7625 1080 24.0342 1081.06 24.2842C1083.18 24.7879 1085.7 25.2505 1088.01 25.0195C1090.38 24.7823 1092.25 23.4789 1093.78 22.1201C1094.54 21.4426 1095.24 20.7296 1095.87 20.127C1096.5 19.5119 1097.05 19.0161 1097.56 18.7109C1098.82 17.958 1099.43 16.7095 1099.62 15.5527C1099.71 14.9736 1099.69 14.4034 1099.59 13.9082C1099.49 13.4219 1099.3 12.9657 1098.99 12.6582C1098.83 12.4992 1098.69 12.2597 1098.57 11.9238C1098.45 11.5893 1098.36 11.1854 1098.28 10.7207C1098.19 10.256 1098.12 9.75024 1098.05 9.20801C1097.97 8.67017 1097.89 8.10179 1097.77 7.53125C1097.5 6.17104 1096.88 4.90324 1096.39 4.07031L1112.54 4.48438L1113.85 18.8145L1114.74 18.7949C1114.81 17.1668 1114.99 14.7278 1115.28 12.7021C1115.42 11.6862 1115.6 10.7935 1115.79 10.1631C1115.89 9.84497 1115.99 9.6209 1116.07 9.48535C1116.1 9.44599 1116.12 9.4204 1116.13 9.40527C1116.93 9.41606 1120.94 9.63354 1124.96 9.95996C1127.02 10.1271 1129.08 10.3224 1130.7 10.5303C1131.51 10.6343 1132.21 10.7399 1132.74 10.8467C1133 10.9001 1133.22 10.9529 1133.39 11.0029C1133.57 11.0561 1133.65 11.0971 1133.68 11.1143C1133.68 11.117 1133.7 11.1352 1133.74 11.1885C1133.77 11.2463 1133.81 11.3305 1133.86 11.4453C1133.94 11.6757 1134.03 11.9918 1134.1 12.3848C1134.24 13.1686 1134.33 14.1975 1134.38 15.3262C1134.49 17.5803 1134.44 20.1767 1134.37 21.8789L1134.36 21.9941L1134.42 22.0977C1134.67 22.6156 1135.26 24.4467 1135.26 27.252C1135.26 27.6008 1135.11 28.1436 1134.79 28.874C1134.48 29.5907 1134.02 30.4408 1133.46 31.3877C1132.32 33.2806 1130.77 35.5269 1129.1 37.8096C1125.76 42.3736 1121.98 47.0502 1120.19 49.2842C1119.21 50.5063 1118.64 52.6563 1118.34 55.2061C1118.03 57.7823 1117.97 60.861 1118.08 64.0244C1118.31 70.3496 1119.2 77.0725 1120.1 80.8994C1120.84 84.0353 1122.9 87.1864 1125.14 89.8311C1127.38 92.483 1129.84 94.6691 1131.42 95.877L1131.87 96.2168L1132.1 95.707C1132.46 94.9008 1133.05 93.8015 1133.61 93.0889C1133.91 92.717 1134.14 92.5256 1134.28 92.4736C1134.3 92.4669 1134.31 92.4647 1134.32 92.4639C1134.33 92.4731 1134.37 92.5054 1134.42 92.5986C1134.57 92.9086 1134.8 93.6187 1135.07 94.6172C1135.34 95.5989 1135.63 96.817 1135.93 98.1104C1136.53 100.697 1137.13 103.57 1137.5 105.427L1137.5 105.442L1139.7 114.671C1139.03 116.239 1138.03 118.623 1137.16 120.849C1136.26 123.12 1135.46 125.283 1135.27 126.224C1135.05 127.318 1134.39 129.867 1133.61 132.369C1133.22 133.619 1132.8 134.849 1132.41 135.875C1132 136.916 1131.63 137.699 1131.33 138.091C1131.25 138.198 1131.08 138.314 1130.75 138.398C1130.43 138.481 1130.01 138.518 1129.5 138.512C1128.49 138.498 1127.23 138.311 1125.93 138.034C1123.32 137.48 1120.69 136.597 1119.84 136.175C1119.72 136.114 1119.52 135.932 1119.26 135.567C1119 135.217 1118.72 134.749 1118.41 134.186C1117.8 133.059 1117.12 131.595 1116.43 130.033C1115.04 126.938 1113.57 123.432 1112.44 121.612C1111.29 119.776 1109.69 118.18 1108.3 116.842C1107.59 116.166 1106.95 115.563 1106.42 115.014C1105.89 114.459 1105.51 113.998 1105.32 113.617C1105.11 113.208 1104.87 112.517 1104.61 111.645C1104.34 110.781 1104.07 109.769 1103.79 108.736C1103.24 106.691 1102.67 104.535 1102.21 103.389C1101.31 101.138 1096.84 91.7526 1095.5 89.0762C1094.99 88.0551 1094.3 85.7239 1093.63 83.1719C1092.98 80.6972 1092.37 78.0688 1092 76.3584L1093.29 72.4609L1093.36 72.2617L1093.25 72.083L1091.11 68.667L1093.31 58.582L1093.33 58.4619L1093.29 58.3457L1091.07 51.6729C1090.76 50.3645 1090.03 48.3809 1088.82 46.6221C1087.61 44.8583 1085.88 43.2611 1083.57 42.876C1081.33 42.5028 1078.43 42.9708 1075.76 43.6768C1073.07 44.3865 1070.55 45.3541 1069.04 46.0322L1068.78 46.1504V48.4473L1068.96 48.5811L1070.46 49.7061L1068.88 53.2363C1067.49 53.8271 1065.61 54.6371 1064.36 55.2275C1064.03 55.3811 1063.74 55.5209 1063.51 55.6396C1063.29 55.7529 1063.1 55.8624 1062.98 55.9512C1062.95 55.9741 1062.91 56.0084 1062.87 56.0527C1062.85 56.075 1062.82 56.1113 1062.8 56.1602C1062.77 56.2071 1062.74 56.2957 1062.75 56.4102C1062.77 56.7109 1063.03 56.805 1063.1 56.8232C1063.18 56.8449 1063.25 56.8421 1063.29 56.8398C1063.45 56.8305 1063.69 56.7712 1063.99 56.6846C1064.61 56.5081 1065.32 56.6733 1066.05 57.1016C1066.78 57.5272 1067.48 58.1833 1068.04 58.8789C1068.6 59.5788 1069 60.2811 1069.15 60.7783C1069.21 60.9775 1069.22 61.1009 1069.21 61.1641C1068.88 61.1659 1068.57 61.2908 1068.3 61.4648C1068.02 61.6408 1067.75 61.8837 1067.5 62.1572C1066.99 62.7032 1066.48 63.4281 1066 64.1553C1065.52 64.9011 1065.07 65.6271 1064.65 66.2549C1064.44 66.5634 1064.25 66.8322 1064.07 67.0479C1063.88 67.2681 1063.73 67.4105 1063.62 67.4863C1063.45 67.5983 1063.12 67.6411 1062.53 67.4941C1061.98 67.3532 1061.3 67.065 1060.56 66.6807C1059.08 65.9133 1057.43 64.8127 1056.08 63.917V63.916C1054.92 63.139 1053.41 62.833 1052.05 62.749C1050.9 62.6783 1049.8 62.7636 1049.02 62.8848C1048.54 61.0844 1047.68 57.5895 1047.35 55.3008C1047.26 54.6643 1047.51 53.8222 1048.02 52.8018C1048.52 51.7971 1049.23 50.704 1049.96 49.583C1050.68 48.4733 1051.42 47.3352 1051.95 46.2764C1052.48 45.2331 1052.84 44.1782 1052.71 43.2529C1052.57 42.2819 1051.82 41.4908 1050.89 40.8438C1049.94 40.1866 1048.7 39.6135 1047.41 39.1074C1046.11 38.6 1044.73 38.1498 1043.49 37.7461C1042.24 37.339 1041.15 36.984 1040.39 36.6592C1038.98 36.0534 1037.46 36.3631 1036.2 36.9297C1034.93 37.4988 1033.84 38.3586 1033.21 38.9844L1033.12 39.0762L1033.09 39.2031L1032.32 42.6592C1028.88 40.9322 1022.49 37.694 1020.82 36.6865C1019.71 36.026 1018.29 36.3821 1017.11 36.9316C1016.16 37.3711 1015.25 37.9844 1014.57 38.5244L1013.58 35.2266C1016.08 34.9542 1019.81 34.2627 1023.51 32.9951C1027.47 31.6366 1031.47 29.5953 1033.87 26.6416C1039.79 19.3539 1038.88 12.0544 1038.43 9.33105C1038.31 8.60323 1037.95 7.66571 1037.54 6.69922C1037.33 6.21017 1037.11 5.70233 1036.88 5.19824C1036.65 4.69267 1036.43 4.19021 1036.22 3.70605C1035.8 2.72798 1035.47 1.86265 1035.35 1.22559C1035.29 0.902517 1035.29 0.691741 1035.33 0.572266C1035.35 0.489944 1035.37 0.478736 1035.42 0.466797C1035.45 0.45882 1035.55 0.446618 1035.75 0.446289Z" fill="#E7FFA4" stroke="black" stroke-width="0.89242"/>
</svg>
