<svg width="3087" height="818" viewBox="0 0 3087 818" fill="none" xmlns="http://www.w3.org/2000/svg">
<rect opacity="0.2" y="7" width="3087" height="810" fill="#E1E1E1"/>
<rect opacity="0.2" y="7" width="1007" height="810" fill="#D5D5D5"/>
<rect opacity="0.2" x="1993" y="8" width="1094" height="810" fill="#F3F3F3"/>
<path d="M305.664 34.8983C310.126 24.6355 308.787 25.5279 315.927 20.1734C323.066 14.8189 325.297 10.803 326.19 9.01817C327.082 7.23333 332.437 5.00228 330.206 10.3568C327.974 15.7113 328.421 18.3884 323.066 25.9739C317.712 33.5595 311.019 29.9898 315.034 37.1292C319.05 44.2685 316.819 50.5155 323.066 51.4079C329.313 52.3003 326.636 55.87 335.56 53.1927C344.484 50.5155 344.484 50.9617 352.516 48.7306C360.548 46.4996 360.994 48.7306 367.241 43.3761C373.488 38.0216 375.273 38.4678 371.703 32.2209C368.133 25.9739 367.241 25.9739 361.886 21.9581C356.532 17.9422 352.962 20.1732 355.193 16.6035C357.408 13.0593 363.583 15.6733 365.417 14.8372C365.231 13.6871 366.45 14.322 365.456 14.8187C365.443 14.825 365.43 14.8312 365.417 14.8372C365.566 15.7535 366.605 17.8029 370.364 21.9581C378.842 31.3285 373.488 30.436 381.52 32.2209C389.551 34.0057 421.232 42.4837 423.463 41.1451C425.694 39.8064 424.356 37.1292 425.248 37.1292C426.141 37.1292 423.017 40.6989 428.818 42.0375C434.619 43.3761 468.531 42.0375 475.224 42.0375C481.917 42.0375 481.917 42.4837 484.594 42.9299C487.271 43.3761 474.778 42.9299 469.423 45.161C464.069 47.392 457.375 49.1769 456.037 50.0693C454.698 50.9617 449.79 45.6072 457.375 53.1927C464.961 60.7783 468.084 64.7942 468.084 70.5949C468.084 76.3957 466.746 70.5949 464.069 70.5949C461.391 70.5949 466.746 70.5949 459.606 67.9177C452.467 65.2404 448.005 67.9177 450.236 65.6866C452.467 63.4556 457.375 61.2245 451.128 57.6548C444.881 54.0852 448.005 50.9617 440.419 50.9617C432.834 50.9617 435.511 52.3003 422.571 48.7306C409.631 45.161 421.232 45.6072 405.615 42.9299C389.998 40.2527 390.89 35.7906 384.197 38.4678C377.504 41.1451 378.396 37.5754 374.827 45.161C371.257 52.7465 385.089 46.4996 365.456 53.1927C345.823 59.8859 345.823 57.6548 344.484 60.7783C343.146 63.9018 346.269 64.7942 348.5 65.6866C350.285 66.4006 350.731 67.174 350.731 67.4715L344.93 69.7025C344.187 68.9588 342.342 67.3822 340.915 67.0252C339.13 66.579 339.13 64.348 337.791 63.9018C336.452 63.4556 323.066 66.1328 318.158 61.2245C313.25 56.3162 317.265 58.5473 314.142 53.639C311.019 48.7306 313.696 51.4079 309.234 44.7148C304.772 38.0216 304.325 35.791 305.664 34.8983Z" fill="#D9FFAF"/>
<path d="M305.664 34.8983C310.126 24.6355 308.787 25.5279 315.927 20.1734C323.066 14.8189 325.297 10.803 326.19 9.01817C327.082 7.23333 332.437 5.00228 330.206 10.3568C327.974 15.7113 328.421 18.3884 323.066 25.9739C317.712 33.5595 311.019 29.9898 315.034 37.1292C319.05 44.2685 316.819 50.5155 323.066 51.4079C329.313 52.3003 326.636 55.87 335.56 53.1927C344.484 50.5155 344.484 50.9617 352.516 48.7306C360.548 46.4996 360.994 48.7306 367.241 43.3761C373.488 38.0216 375.273 38.4678 371.703 32.2209C368.133 25.9739 367.241 25.9739 361.886 21.9581C356.532 17.9422 352.962 20.1732 355.193 16.6035C357.424 13.0339 363.671 15.7111 365.456 14.8187C367.241 13.9263 361.886 12.5876 370.364 21.9581C378.842 31.3285 373.488 30.436 381.52 32.2209C389.551 34.0057 421.232 42.4837 423.463 41.1451C425.694 39.8064 424.356 37.1292 425.248 37.1292C426.141 37.1292 423.017 40.6989 428.818 42.0375C434.619 43.3761 468.531 42.0375 475.224 42.0375C481.917 42.0375 481.917 42.4837 484.594 42.9299C487.271 43.3761 474.778 42.9299 469.423 45.161C464.069 47.392 457.375 49.1769 456.037 50.0693C454.698 50.9617 449.79 45.6072 457.375 53.1927C464.961 60.7783 468.084 64.7942 468.084 70.5949C468.084 76.3957 466.746 70.5949 464.069 70.5949C461.391 70.5949 466.746 70.5949 459.606 67.9177C452.467 65.2404 448.005 67.9177 450.236 65.6866C452.467 63.4556 457.375 61.2245 451.128 57.6548C444.881 54.0852 448.005 50.9617 440.419 50.9617C432.834 50.9617 435.511 52.3003 422.571 48.7306C409.631 45.161 421.232 45.6072 405.615 42.9299C389.998 40.2527 390.89 35.7906 384.197 38.4678C377.504 41.1451 378.396 37.5754 374.827 45.161C371.257 52.7465 385.089 46.4996 365.456 53.1927C345.823 59.8859 345.823 57.6548 344.484 60.7783C343.146 63.9018 346.269 64.7942 348.5 65.6866C350.285 66.4006 350.731 67.174 350.731 67.4715L344.93 69.7025C344.187 68.9588 342.342 67.3822 340.915 67.0253C339.13 66.579 339.13 64.348 337.791 63.9018C336.452 63.4556 323.066 66.1328 318.158 61.2245C313.25 56.3162 317.265 58.5473 314.142 53.639C311.019 48.7306 313.696 51.4079 309.234 44.7148C304.772 38.0216 304.325 35.791 305.664 34.8983Z" stroke="black" stroke-width="0.89242"/>
</svg>
