<svg width="3087" height="818" viewBox="0 0 3087 818" fill="none" xmlns="http://www.w3.org/2000/svg">
<rect opacity="0.2" y="7" width="3087" height="810" fill="#E1E1E1"/>
<rect opacity="0.2" y="7" width="1007" height="810" fill="#D5D5D5"/>
<rect opacity="0.2" x="1993" y="8" width="1094" height="810" fill="#F3F3F3"/>
<path d="M141.287 80.3181C135.932 84.334 129.685 84.7802 121.653 82.9954C121.356 81.8055 120.493 79.0687 119.422 77.6408C118.084 75.856 120.315 74.5173 120.761 72.2863C121.207 70.0552 125.669 72.7325 134.147 71.8401C140.93 71.1261 145.005 67.6755 146.195 66.0394L145.303 64.2545C145.749 64.2545 147.355 64.1653 150.211 63.8083C153.781 63.3621 176.984 52.2068 180.999 48.6372C185.015 45.0675 183.23 43.7289 184.123 35.6971C185.015 27.6653 176.537 19.1873 172.968 14.279C170.112 10.3524 167.316 9.07322 166.274 8.92449C167.316 8.32954 170.023 7.13965 172.521 7.13965C175.645 7.13965 189.924 7.13965 189.031 8.03207C188.139 8.92449 186.354 12.048 185.461 14.279C184.569 16.5101 185.461 16.5101 188.139 19.1873C190.816 21.8646 192.155 22.3108 193.939 20.9722C195.724 19.6335 198.402 14.279 198.848 12.9404C199.205 11.8695 198.997 8.62701 198.848 7.13965H216.696C216.696 7.43712 216.518 8.38904 215.804 9.81691C214.911 11.6017 212.68 12.048 210.449 14.7252C208.218 17.4025 208.664 18.7411 207.772 21.8646C206.88 24.988 200.633 31.6812 199.74 32.5736C198.848 33.466 197.509 36.1433 197.955 37.4819C198.402 38.8206 198.402 45.0675 198.402 46.8523C198.402 48.2802 196.617 55.4791 195.724 58.9C195.576 58.6025 194.921 57.7399 193.493 56.669C192.065 55.5981 191.411 55.6279 191.262 55.7766C190.816 56.3715 189.12 58.2754 185.908 61.1311C181.892 64.7008 164.936 71.8402 159.135 73.1788C153.334 74.5174 146.641 76.3023 141.287 80.3181Z" fill="#D9FFAF" stroke="black" stroke-width="0.89242"/>
</svg>
