<svg width="3087" height="818" viewBox="0 0 3087 818" fill="none" xmlns="http://www.w3.org/2000/svg">
<rect opacity="0.2" y="7" width="3087" height="810" fill="#E1E1E1"/>
<rect opacity="0.2" y="7" width="1007" height="810" fill="#D5D5D5"/>
<rect opacity="0.2" x="1993" y="8" width="1094" height="810" fill="#F3F3F3"/>
<path d="M283.741 23.8642C285.972 25.2028 281.51 30.5573 277.048 41.7126C274.313 47.9596 277.494 56.4374 280.171 64.0229C282.849 71.6085 288.649 73.3933 294.004 77.8554C299.358 82.3175 305.605 81.8713 313.637 84.1024C321.669 86.3334 318.992 85.441 337.732 84.9948C356.473 84.5486 350.672 85.8872 365.844 84.1024C381.015 82.3175 377.891 83.6562 389.493 79.6403C401.094 75.6244 394.847 77.4092 402.879 71.6085C410.911 65.8078 407.341 68.485 412.249 63.5767C417.158 58.6684 416.712 52.4215 416.265 49.298C415.908 46.7992 414.629 46.472 414.034 46.6207L412.249 50.1904C410.911 52.8677 410.465 51.9753 406.449 59.1146C402.433 66.254 394.401 68.0388 392.17 68.9312C389.939 69.8237 391.724 68.9312 386.815 68.485C381.907 68.0388 383.692 68.9312 381.907 70.2699C380.122 71.6085 379.676 71.6085 376.999 71.6085C374.322 71.6085 375.66 71.1623 374.768 71.6085C373.875 72.0547 371.644 72.5009 368.967 72.0547C366.29 71.6085 366.736 71.1623 365.844 69.8237C364.951 68.485 363.613 68.9312 361.828 68.9312C360.043 68.9312 360.043 68.485 360.489 65.3616C360.935 62.2381 361.382 64.4691 359.597 62.6843C357.812 60.8995 357.812 60.007 356.919 60.4532C356.027 60.8995 355.135 61.7919 352.457 63.5767C349.78 65.3616 352.457 64.4691 352.457 66.254C352.457 68.0388 352.904 69.8237 352.457 72.9471C352.011 76.0706 352.457 73.8395 349.334 74.732C346.21 75.6244 340.41 76.0706 335.055 76.0706C329.701 76.0706 331.932 76.0706 330.593 75.6244C329.254 75.1782 327.916 74.2858 327.916 72.9471C327.916 71.8762 327.618 70.7161 327.47 70.2699C326.131 69.8237 323.097 69.1097 321.669 69.8237C319.884 70.7161 323.007 73.3933 323.454 74.732C323.811 75.8029 327.172 76.963 328.808 77.4092H324.346C322.264 77.2605 317.028 76.6953 312.745 75.6244C307.39 74.2858 306.944 73.8395 302.928 71.6085C298.912 69.3774 293.111 66.254 294.896 65.3616C296.324 64.6476 299.358 65.0641 300.697 65.3616L298.912 62.6843C297.127 60.007 296.235 60.007 291.773 58.6684C287.311 57.3298 287.757 53.7601 286.418 47.9594C285.08 42.1586 286.418 43.0511 295.342 29.6648C304.267 16.2785 298.466 25.2027 302.928 20.7406C307.39 16.2785 305.159 14.4938 304.713 10.4779C304.267 6.46197 299.358 6.46197 293.111 7.8006C286.864 9.13923 287.311 13.1551 283.741 18.5096C280.171 23.8642 281.51 22.5255 283.741 23.8642Z" fill="#D9FFAF" stroke="black" stroke-width="0.89242"/>
</svg>
