<svg width="3087" height="819" viewBox="0 0 3087 819" fill="none" xmlns="http://www.w3.org/2000/svg">
<rect opacity="0.2" y="7.44629" width="3087" height="810" fill="#E1E1E1"/>
<rect opacity="0.2" y="7.44629" width="1007" height="810" fill="#D5D5D5"/>
<rect opacity="0.2" x="1993" y="8.44629" width="1094" height="810" fill="#F3F3F3"/>
<path d="M305.664 35.3446C310.126 25.0818 308.787 25.9742 315.927 20.6197C323.066 15.2652 325.297 11.2493 326.19 9.46446C327.082 7.67962 332.437 5.44857 330.206 10.8031C327.974 16.1576 328.421 18.8347 323.066 26.4202C317.712 34.0058 311.019 30.4361 315.034 37.5755C319.05 44.7148 316.819 50.9618 323.066 51.8542C329.313 52.7466 326.636 56.3163 335.56 53.639C344.484 50.9618 344.484 51.408 352.516 49.1769C360.548 46.9459 360.994 49.1769 367.241 43.8224C373.488 38.4679 375.273 38.9141 371.703 32.6672C368.133 26.4202 367.241 26.4202 361.886 22.4043C356.532 18.3885 352.962 20.6195 355.193 17.0498C357.408 13.5055 363.583 16.1196 365.417 15.2835C365.231 14.1334 366.45 14.7683 365.456 15.265C365.443 15.2713 365.43 15.2775 365.417 15.2835C365.566 16.1998 366.605 18.2492 370.364 22.4043C378.842 31.7747 373.488 30.8823 381.52 32.6672C389.551 34.452 421.232 42.93 423.463 41.5914C425.694 40.2527 424.356 37.5755 425.248 37.5755C426.141 37.5755 423.017 41.1452 428.818 42.4838C434.619 43.8224 468.531 42.4838 475.224 42.4838C481.917 42.4838 481.917 42.93 484.594 43.3762C487.271 43.8224 474.778 43.3762 469.423 45.6073C464.069 47.8383 457.375 49.6231 456.037 50.5156C454.698 51.408 449.79 46.0535 457.375 53.639C464.961 61.2246 468.084 65.2405 468.084 71.0412C468.084 76.8419 466.746 71.0412 464.069 71.0412C461.391 71.0412 466.746 71.0412 459.606 68.364C452.467 65.6867 448.005 68.364 450.236 66.1329C452.467 63.9019 457.375 61.6708 451.128 58.1011C444.881 54.5315 448.005 51.408 440.419 51.408C432.834 51.408 435.511 52.7466 422.571 49.1769C409.631 45.6073 421.232 46.0535 405.615 43.3762C389.998 40.6989 390.89 36.2368 384.197 38.9141C377.504 41.5914 378.396 38.0217 374.827 45.6073C371.257 53.1928 385.089 46.9459 365.456 53.639C345.823 60.3322 345.823 58.1011 344.484 61.2246C343.146 64.3481 346.269 65.2405 348.5 66.1329C350.285 66.8468 350.731 67.6203 350.731 67.9178L344.93 70.1488C344.187 69.4051 342.342 67.8285 340.915 67.4715C339.13 67.0253 339.13 64.7943 337.791 64.3481C336.452 63.9019 323.066 66.5791 318.158 61.6708C313.25 56.7625 317.265 58.9936 314.142 54.0852C311.019 49.1769 313.696 51.8542 309.234 45.161C304.772 38.4679 304.325 36.2373 305.664 35.3446Z" fill="#D9FFAF"/>
<path d="M305.664 35.3446C310.126 25.0818 308.787 25.9742 315.927 20.6197C323.066 15.2652 325.297 11.2493 326.19 9.46446C327.082 7.67962 332.437 5.44857 330.206 10.8031C327.974 16.1576 328.421 18.8347 323.066 26.4202C317.712 34.0058 311.019 30.4361 315.034 37.5755C319.05 44.7148 316.819 50.9618 323.066 51.8542C329.313 52.7466 326.636 56.3163 335.56 53.639C344.484 50.9618 344.484 51.408 352.516 49.1769C360.548 46.9459 360.994 49.1769 367.241 43.8224C373.488 38.4679 375.273 38.9141 371.703 32.6672C368.133 26.4202 367.241 26.4202 361.886 22.4043C356.532 18.3885 352.962 20.6195 355.193 17.0498C357.424 13.4801 363.671 16.1574 365.456 15.265C367.241 14.3726 361.886 13.0339 370.364 22.4043C378.842 31.7747 373.488 30.8823 381.52 32.6672C389.551 34.452 421.232 42.93 423.463 41.5914C425.694 40.2527 424.356 37.5755 425.248 37.5755C426.141 37.5755 423.017 41.1452 428.818 42.4838C434.619 43.8224 468.531 42.4838 475.224 42.4838C481.917 42.4838 481.917 42.93 484.594 43.3762C487.271 43.8224 474.778 43.3762 469.423 45.6073C464.069 47.8383 457.375 49.6231 456.037 50.5156C454.698 51.408 449.79 46.0535 457.375 53.639C464.961 61.2246 468.084 65.2405 468.084 71.0412C468.084 76.8419 466.746 71.0412 464.069 71.0412C461.391 71.0412 466.746 71.0412 459.606 68.364C452.467 65.6867 448.005 68.364 450.236 66.1329C452.467 63.9019 457.375 61.6708 451.128 58.1011C444.881 54.5315 448.005 51.408 440.419 51.408C432.834 51.408 435.511 52.7466 422.571 49.1769C409.631 45.6073 421.232 46.0535 405.615 43.3762C389.998 40.6989 390.89 36.2368 384.197 38.9141C377.504 41.5914 378.396 38.0217 374.827 45.6073C371.257 53.1928 385.089 46.9459 365.456 53.639C345.823 60.3322 345.823 58.1011 344.484 61.2246C343.146 64.3481 346.269 65.2405 348.5 66.1329C350.285 66.8468 350.731 67.6203 350.731 67.9177L344.93 70.1488C344.187 69.4051 342.342 67.8285 340.915 67.4715C339.13 67.0253 339.13 64.7943 337.791 64.3481C336.452 63.9019 323.066 66.5791 318.158 61.6708C313.25 56.7625 317.265 58.9936 314.142 54.0852C311.019 49.1769 313.696 51.8542 309.234 45.161C304.772 38.4679 304.325 36.2373 305.664 35.3446Z" stroke="black" stroke-width="0.89242"/>
<path d="M815.664 28.3446C820.126 18.0818 818.787 18.9742 825.927 13.6197C833.066 8.26519 835.297 4.2493 836.19 2.46446C837.082 0.679619 842.437 -1.55143 840.206 3.80309C837.974 9.15761 838.421 11.8347 833.066 19.4202C827.712 27.0058 821.019 23.4361 825.034 30.5755C829.05 37.7148 826.819 43.9618 833.066 44.8542C839.313 45.7466 836.636 49.3163 845.56 46.639C854.484 43.9618 854.484 44.408 862.516 42.1769C870.548 39.9459 870.994 42.1769 877.241 36.8224C883.488 31.4679 885.273 31.9141 881.703 25.6672C878.133 19.4202 877.241 19.4202 871.886 15.4043C866.532 11.3885 862.962 13.6195 865.193 10.0498C867.408 6.50555 873.583 9.11961 875.417 8.2835C875.231 7.13338 876.45 7.76829 875.456 8.26498C875.443 8.27133 875.43 8.2775 875.417 8.2835C875.566 9.19982 876.605 11.2492 880.364 15.4043C888.842 24.7747 883.488 23.8823 891.52 25.6672C899.551 27.452 931.232 35.93 933.463 34.5914C935.694 33.2527 934.356 30.5755 935.248 30.5755C936.141 30.5755 933.017 34.1452 938.818 35.4838C944.619 36.8224 978.531 35.4838 985.224 35.4838C991.917 35.4838 991.917 35.93 994.594 36.3762C997.271 36.8224 984.778 36.3762 979.423 38.6073C974.068 40.8383 967.375 42.6231 966.037 43.5156C964.698 44.408 959.79 39.0535 967.375 46.639C974.961 54.2246 978.084 58.2405 978.084 64.0412C978.084 69.8419 976.746 64.0412 974.069 64.0412C971.391 64.0412 976.746 64.0412 969.606 61.364C962.467 58.6867 958.005 61.364 960.236 59.1329C962.467 56.9019 967.375 54.6708 961.128 51.1011C954.881 47.5314 958.005 44.408 950.419 44.408C942.834 44.408 945.511 45.7466 932.571 42.1769C919.631 38.6073 931.232 39.0535 915.615 36.3762C899.998 33.6989 900.89 29.2368 894.197 31.9141C887.504 34.5914 888.396 31.0217 884.827 38.6073C881.257 46.1928 895.089 39.9459 875.456 46.639C855.823 53.3322 855.823 51.1011 854.484 54.2246C853.146 57.3481 856.269 58.2405 858.5 59.1329C860.285 59.8468 860.731 60.6203 860.731 60.9177L854.93 63.1488C854.187 62.4051 852.342 60.8285 850.915 60.4715C849.13 60.0253 849.13 57.7943 847.791 57.3481C846.452 56.9019 833.066 59.5791 828.158 54.6708C823.25 49.7625 827.265 51.9935 824.142 47.0852C821.019 42.1769 823.696 44.8542 819.234 38.161C814.772 31.4679 814.325 29.2372 815.664 28.3446Z" fill="#D9FFAF"/>
<path d="M815.664 28.3446C820.126 18.0818 818.787 18.9742 825.927 13.6197C833.066 8.26519 835.297 4.2493 836.19 2.46446C837.082 0.679619 842.437 -1.55143 840.206 3.80309C837.974 9.15761 838.421 11.8347 833.066 19.4202C827.712 27.0058 821.019 23.4361 825.034 30.5755C829.05 37.7148 826.819 43.9618 833.066 44.8542C839.313 45.7466 836.636 49.3163 845.56 46.639C854.484 43.9618 854.484 44.408 862.516 42.1769C870.548 39.9459 870.994 42.1769 877.241 36.8224C883.488 31.4679 885.273 31.9141 881.703 25.6672C878.133 19.4202 877.241 19.4202 871.886 15.4043C866.532 11.3885 862.962 13.6195 865.193 10.0498C867.424 6.48014 873.671 9.1574 875.456 8.26498C877.241 7.37256 871.886 6.03393 880.364 15.4043C888.842 24.7747 883.488 23.8823 891.52 25.6672C899.551 27.452 931.232 35.93 933.463 34.5914C935.694 33.2527 934.356 30.5755 935.248 30.5755C936.141 30.5755 933.017 34.1452 938.818 35.4838C944.619 36.8224 978.531 35.4838 985.224 35.4838C991.917 35.4838 991.917 35.93 994.594 36.3762C997.271 36.8224 984.778 36.3762 979.423 38.6072C974.069 40.8383 967.375 42.6231 966.037 43.5156C964.698 44.408 959.79 39.0535 967.375 46.639C974.961 54.2246 978.084 58.2405 978.084 64.0412C978.084 69.8419 976.746 64.0412 974.069 64.0412C971.391 64.0412 976.746 64.0412 969.606 61.364C962.467 58.6867 958.005 61.364 960.236 59.1329C962.467 56.9019 967.375 54.6708 961.128 51.1011C954.881 47.5314 958.005 44.408 950.419 44.408C942.834 44.408 945.511 45.7466 932.571 42.1769C919.631 38.6072 931.232 39.0535 915.615 36.3762C899.998 33.6989 900.89 29.2368 894.197 31.9141C887.504 34.5914 888.396 31.0217 884.827 38.6072C881.257 46.1928 895.089 39.9459 875.456 46.639C855.823 53.3322 855.823 51.1011 854.484 54.2246C853.146 57.3481 856.269 58.2405 858.5 59.1329C860.285 59.8468 860.731 60.6203 860.731 60.9177L854.93 63.1488C854.187 62.4051 852.342 60.8285 850.915 60.4715C849.13 60.0253 849.13 57.7943 847.791 57.3481C846.452 56.9019 833.066 59.5791 828.158 54.6708C823.25 49.7625 827.265 51.9935 824.142 47.0852C821.019 42.1769 823.696 44.8542 819.234 38.161C814.772 31.4679 814.325 29.2373 815.664 28.3446Z" stroke="black" stroke-width="0.89242"/>
</svg>
