<svg width="3087" height="818" viewBox="0 0 3087 818" fill="none" xmlns="http://www.w3.org/2000/svg">
<rect opacity="0.2" y="7" width="3087" height="810" fill="#E1E1E1"/>
<rect opacity="0.2" y="7" width="1007" height="810" fill="#D5D5D5"/>
<rect opacity="0.2" x="1993" y="8" width="1094" height="810" fill="#F3F3F3"/>
<path d="M789.741 24.0038C791.972 25.3424 787.51 30.697 783.048 41.8522C780.313 48.0993 783.494 56.577 786.171 64.1626C788.849 71.7481 794.649 73.533 800.004 77.9951C805.358 82.4572 811.605 82.011 819.637 84.242C827.669 86.4731 824.992 85.5807 843.732 85.1344C862.473 84.6882 856.672 86.0269 871.844 84.242C887.015 82.4572 883.891 83.7958 895.493 79.7799C907.094 75.764 900.847 77.5489 908.879 71.7481C916.911 65.9474 913.341 68.6247 918.249 63.7164C923.158 58.8081 922.712 52.5611 922.265 49.4376C921.908 46.9389 920.629 46.6116 920.034 46.7604L918.249 50.3301C916.911 53.0073 916.465 52.1149 912.449 59.2543C908.433 66.3936 900.401 68.1785 898.17 69.0709C895.939 69.9633 897.724 69.0709 892.815 68.6247C887.907 68.1785 889.692 69.0709 887.907 70.4095C886.122 71.7481 885.676 71.7481 882.999 71.7481C880.322 71.7481 881.66 71.3019 880.768 71.7481C879.875 72.1944 877.644 72.6406 874.967 72.1944C872.29 71.7481 872.736 71.3019 871.844 69.9633C870.951 68.6247 869.613 69.0709 867.828 69.0709C866.043 69.0709 866.043 68.6247 866.489 65.5012C866.935 62.3777 867.382 64.6088 865.597 62.8239C863.812 61.0391 863.812 60.1467 862.919 60.5929C862.027 61.0391 861.135 61.9315 858.457 63.7164C855.78 65.5012 858.457 64.6088 858.457 66.3936C858.457 68.1785 858.904 69.9633 858.457 73.0868C858.011 76.2102 858.457 73.9792 855.334 74.8716C852.21 75.764 846.41 76.2102 841.055 76.2102C835.701 76.2102 837.932 76.2102 836.593 75.764C835.254 75.3178 833.916 74.4254 833.916 73.0868C833.916 72.0159 833.618 70.8557 833.47 70.4095C832.131 69.9633 829.097 69.2494 827.669 69.9633C825.884 70.8557 829.007 73.533 829.454 74.8716C829.811 75.9425 833.172 77.1027 834.808 77.5489H830.346C828.264 77.4001 823.028 76.8349 818.745 75.764C813.39 74.4254 812.944 73.9792 808.928 71.7481C804.912 69.5171 799.111 66.3936 800.896 65.5012C802.324 64.7873 805.358 65.2037 806.697 65.5012L804.912 62.8239C803.127 60.1467 802.235 60.1467 797.773 58.8081C793.311 57.4694 793.757 53.8997 792.418 48.099C791.08 42.2983 792.418 43.1907 801.342 29.8044C810.267 16.4181 804.466 25.3423 808.928 20.8802C813.39 16.4181 811.159 14.6334 810.713 10.6175C810.267 6.60162 805.358 6.60162 799.111 7.94025C792.864 9.27888 793.311 13.2948 789.741 18.6493C786.171 24.0038 787.51 22.6652 789.741 24.0038Z" fill="#D9FFAF" stroke="black" stroke-width="0.89242"/>
</svg>
