<svg width="3087" height="818" viewBox="0 0 3087 818" fill="none" xmlns="http://www.w3.org/2000/svg">
<rect opacity="0.2" y="7" width="3087" height="810" fill="#E1E1E1"/>
<rect opacity="0.2" y="7" width="1007" height="810" fill="#D5D5D5"/>
<rect opacity="0.2" x="1993" y="8" width="1094" height="810" fill="#F3F3F3"/>
<path d="M732.409 80.3181C737.763 84.334 744.01 84.7802 752.042 82.9954C752.339 81.8055 753.202 79.0687 754.273 77.6408C755.612 75.856 753.38 74.5173 752.934 72.2863C752.488 70.0552 748.026 72.7325 739.548 71.8401C732.766 71.1261 728.69 67.6755 727.5 66.0394L728.393 64.2545C727.947 64.2545 726.34 64.1653 723.484 63.8083C719.915 63.3621 696.712 52.2068 692.696 48.6372C688.68 45.0675 690.465 43.7289 689.572 35.6971C688.68 27.6653 697.158 19.1873 700.728 14.279C703.583 10.3524 706.38 9.07322 707.421 8.92449C706.38 8.32954 703.673 7.13965 701.174 7.13965C698.05 7.13965 683.772 7.13965 684.664 8.03207C685.557 8.92449 687.341 12.048 688.234 14.279C689.126 16.5101 688.234 16.5101 685.557 19.1873C682.879 21.8646 681.541 22.3108 679.756 20.9722C677.971 19.6335 675.294 14.279 674.848 12.9404C674.491 11.8695 674.699 8.62701 674.848 7.13965H656.999C656.999 7.43712 657.178 8.38904 657.892 9.81691C658.784 11.6017 661.015 12.048 663.246 14.7252C665.477 17.4025 665.031 18.7411 665.923 21.8646C666.816 24.988 673.063 31.6812 673.955 32.5736C674.848 33.466 676.186 36.1433 675.74 37.4819C675.294 38.8206 675.294 45.0675 675.294 46.8523C675.294 48.2802 677.079 55.4791 677.971 58.9C678.12 58.6025 678.774 57.7399 680.202 56.669C681.63 55.5981 682.284 55.6279 682.433 55.7766C682.879 56.3715 684.575 58.2754 687.788 61.1311C691.804 64.7008 708.759 71.8402 714.56 73.1788C720.361 74.5174 727.054 76.3023 732.409 80.3181Z" fill="#D9FFAF" stroke="black" stroke-width="0.89242"/>
</svg>
